<?xml version="1.0" encoding="utf-8"?>
<!-- Generator: Adobe Illustrator 19.1.0, SVG Export Plug-In . SVG Version: 6.00 Build 0)  -->
<svg version="1.1" id="Layer_1" xmlns="http://www.w3.org/2000/svg" xmlns:xlink="http://www.w3.org/1999/xlink" x="0px" y="0px"
	 width="300px" height="300px" viewBox="0 0 300 300" style="enable-background:new 0 0 300 300;" xml:space="preserve">
<style type="text/css">
	.st0{fill:#231F20;}
	.st1{clip-path:url(#SVGID_2_);fill:#FFFFFF;}
</style>
<polygon class="st0" points="133.5,41.4 253.4,73.3 204.2,239.5 185.7,234.6 183.5,242 212.5,249.7 266.2,68.7 107.6,26.5 "/>
<polygon class="st0" points="86.6,20.9 33,202 165.1,278 218.7,97 "/>
<g>
	<defs>
		<rect id="SVGID_1_" x="33" y="20.9" width="233.2" height="257.1"/>
	</defs>
	<clipPath id="SVGID_2_">
		<use xlink:href="#SVGID_1_"  style="overflow:visible;"/>
	</clipPath>
	<path class="st1" d="M96.9,176.1c-30.2,18.3-43.2,2.2-13-16.1c5-3.1,16.5-6.7,26.8-11.1c0.8,2.3,1.2,4.1,3.9,5.4
		c0.4,1.9,0.8,3.9,1.2,5.9C108.3,166.6,101.4,173.4,96.9,176.1"/>
	<path class="st1" d="M128.2,138.3c3.8-4.1,1.8-6.2,2.8-12.1c0.6-3.5,2.9-5.9,5.8-7.3c2.7-1.3,5.3-2.6,7.9-3.9
		c7.8-3.8,15.5-7.7,23.3-11.5c2.2-1.1,4.6,1.9,2.5,3.1c-7.4,4.3-14.7,8.6-22.1,12.9c-2.4,1.4-4.9,2.9-7.5,4.4
		c-1.5,0.9,0.7,3.5,2.2,2.7c2.6-1.4,5.2-2.8,7.7-4.1c7.6-4.1,15.1-8.1,22.7-12.2c2.2-1.2,4.6,1.8,2.5,3.1
		c-7.2,4.5-14.4,9.1-21.5,13.6c-2.4,1.5-4.8,3-7.3,4.6c-1.4,0.9,0.7,3.6,2.2,2.7c2.5-1.5,5-2.9,7.5-4.3c7.4-4.3,14.8-8.6,22.2-12.8
		c2.1-1.2,4.5,1.7,2.5,3.1c-7,4.8-14,9.5-21,14.3c-2.3,1.6-4.7,3.2-7.1,4.8c-1.4,0.9,0.8,3.6,2.2,2.7c2.5-1.6,4.9-3.1,7.3-4.6
		c7.2-4.5,14.4-9,21.6-13.5c2.1-1.3,4.5,1.7,2.5,3.1c-6.8,5-13.6,10-20.4,15c-2.3,1.7-4.6,3.3-6.9,5.1c-2.5,1.8-6.2,2.8-10,2.1
		c-7.9-1.4-8.7-4.5-17.3-0.7c-0.5,0.2-1,0.4-1.5,0.7C130.1,145.8,129.2,142.1,128.2,138.3"/>
	<path class="st1" d="M140.4,194.1c12.1,43-2.8,41.6-14.9-1.3c-2.3-8-4.3-24-7.4-38.5c-0.5-3.5-2.7-2.1-3.4-3.6
		c-1.9-5.9-6.6-17.6-11.3-30.6c-4.7-13-9.4-27.2-11.2-38.2c-1.1-6.4-2.2-15,3.3-17.6c4.2-2,10.7-0.3,12.2,5.5
		c3.4,13.5,6.7,27,10.1,40.5c3.4,13.5,6.7,27,10.1,40.5c0.7,2.6-1.7,0.6-0.9,3.2c0.1,0.3,0.2,0.7,0.3,1
		C131.9,169.7,138.2,186.2,140.4,194.1"/>
</g>
</svg>
