<!-- Generator: Adobe Illustrator 19.1.0, SVG Export Plug-In  -->
<svg version="1.1"
	 xmlns="http://www.w3.org/2000/svg" xmlns:xlink="http://www.w3.org/1999/xlink" xmlns:a="http://ns.adobe.com/AdobeSVGViewerExtensions/3.0/"
	 x="0px" y="0px" width="335.8px" height="98.8px" viewBox="0 0 335.8 98.8" style="enable-background:new 0 0 335.8 98.8;"
	 xml:space="preserve">
<style type="text/css">
	.st0{fill:#231F20;}
</style>
<defs>
</defs>
<g>
	<path class="st0" d="M1.8,1.8c0-1,0.8-1.8,1.7-1.8c1,0,1.8,0.8,1.8,1.8v12.9c1.9-2.8,4.7-5.2,9-5.2c5.6,0,11.2,4.5,11.2,12.2v0.1
		c0,7.7-5.5,12.2-11.2,12.2c-4.4,0-7.2-2.4-9-5v3c0,1-0.7,1.8-1.7,1.8c-1,0-1.8-0.8-1.8-1.8V1.8z M21.9,21.8L21.9,21.8
		c0-5.6-3.8-9.2-8.3-9.2c-4.4,0-8.5,3.7-8.5,9v0.1c0,5.4,4.1,9.1,8.5,9.1C18.2,30.8,21.9,27.4,21.9,21.8z"/>
	<path class="st0" d="M30.5,21.8L30.5,21.8c0-6.7,5.2-12.4,12.3-12.4c7,0,12.2,5.5,12.2,12.2v0.1c0,6.6-5.2,12.3-12.3,12.3
		C35.6,34,30.5,28.4,30.5,21.8z M51.4,21.8L51.4,21.8c0-5.1-3.8-9.3-8.7-9.3c-5.1,0-8.6,4.1-8.6,9.1v0.1c0,5,3.7,9.1,8.7,9.1
		C47.8,30.8,51.4,26.7,51.4,21.8z"/>
	<path class="st0" d="M61.3,2.6c0-1.1,0.9-1.9,2-1.9c1.2,0,2.1,0.7,2.1,1.9v0.6c0,1.1-0.9,1.9-2.1,1.9c-1.1,0-2-0.8-2-1.9V2.6z
		 M61.6,11.5c0-1,0.8-1.8,1.7-1.8c1,0,1.8,0.8,1.8,1.8v20.4c0,1-0.7,1.8-1.7,1.8s-1.8-0.8-1.8-1.8V11.5z"/>
	<path class="st0" d="M73.2,11.5c0-1,0.8-1.8,1.7-1.8c1,0,1.8,0.8,1.8,1.8v4.4c1.7-3.9,5.1-6.3,8.1-6.3c1,0,1.7,0.8,1.7,1.8
		c0,1-0.6,1.6-1.5,1.8c-4.5,0.5-8.3,4-8.3,10.7v8c0,1-0.7,1.8-1.7,1.8c-1,0-1.8-0.8-1.8-1.8V11.5z"/>
	<path class="st0" d="M100.8,34c-6.4,0-11.7-4.9-11.7-12.2v-0.1c0-6.8,4.8-12.2,11.3-12.2c6.9,0,10.9,5.7,10.9,11.9
		c0,1-0.8,1.6-1.6,1.6h-17c0.5,5.1,4.1,7.9,8.3,7.9c2.9,0,5-1.1,6.8-2.7c0.3-0.2,0.6-0.4,1-0.4c0.9,0,1.5,0.7,1.5,1.5
		c0,0.4-0.2,0.8-0.5,1.1C107.5,32.6,104.8,34,100.8,34z M107.8,20.4c-0.4-4.3-2.8-8-7.5-8c-4.1,0-7.2,3.4-7.6,8H107.8z"/>
	<path class="st0" d="M153.4,31.9c0,1-0.8,1.8-1.7,1.8c-1,0-1.8-0.8-1.8-1.8v-3.2c-1.9,2.8-4.7,5.2-9,5.2c-5.6,0-11.2-4.5-11.2-12.2
		v-0.1c0-7.7,5.6-12.2,11.2-12.2c4.4,0,7.2,2.4,9,5V1.8c0-1,0.7-1.8,1.7-1.8c1,0,1.8,0.8,1.8,1.8V31.9z M133.3,21.6L133.3,21.6
		c0,5.6,3.9,9.2,8.3,9.2c4.4,0,8.5-3.7,8.5-9.1v-0.1c0-5.4-4.1-9-8.5-9C137,12.6,133.3,15.9,133.3,21.6z"/>
	<path class="st0" d="M181.4,31.9c0,1-0.7,1.8-1.7,1.8c-1,0-1.7-0.8-1.7-1.8v-2.5c-1.6,2.5-4,4.6-8,4.6c-5.7,0-9-3.8-9-9.4v-13
		c0-1,0.7-1.8,1.7-1.8c1,0,1.8,0.8,1.8,1.8v12.2c0,4.4,2.4,7.1,6.5,7.1c4,0,7-3,7-7.4V11.5c0-1,0.7-1.8,1.7-1.8c1,0,1.7,0.8,1.7,1.8
		V31.9z"/>
</g>
<g>
	<path d="M202.3,3.5c0-1.9,1.5-3.5,3.5-3.5c1.9,0,3.5,1.5,3.5,3.5v26.8c0,1.9-1.5,3.5-3.5,3.5c-1.9,0-3.5-1.5-3.5-3.5V3.5z"/>
	<path d="M214.3,26.4L214.3,26.4c0-5.4,4-7.9,9.8-7.9c2.5,0,4.2,0.4,5.9,1v-0.4c0-2.9-1.8-4.5-5.2-4.5c-1.9,0-3.5,0.3-4.8,0.7
		c-0.4,0.1-0.7,0.2-1,0.2c-1.6,0-2.9-1.2-2.9-2.8c0-1.2,0.8-2.3,1.9-2.7c2.2-0.8,4.5-1.3,7.8-1.3c3.8,0,6.5,1,8.2,2.7
		c1.8,1.8,2.6,4.5,2.6,7.8v11.1c0,1.9-1.5,3.3-3.4,3.3c-2,0-3.3-1.4-3.3-2.9v0c-1.7,1.9-4,3.1-7.4,3.1
		C218,33.9,214.3,31.2,214.3,26.4z M230.1,24.8v-1.2c-1.2-0.5-2.7-0.9-4.4-0.9c-3,0-4.8,1.2-4.8,3.4v0.1c0,1.9,1.5,3,3.8,3
		C227.9,29.1,230.1,27.3,230.1,24.8z"/>
	<path d="M242.5,3.3c0-2,1.7-3.2,3.9-3.2s3.9,1.2,3.9,3.2v0.1c0,2-1.7,3.3-3.9,3.3S242.5,5.4,242.5,3.3L242.5,3.3z M242.9,12.3
		c0-1.9,1.5-3.5,3.5-3.5c1.9,0,3.5,1.5,3.5,3.5v18c0,1.9-1.5,3.5-3.5,3.5c-1.9,0-3.5-1.5-3.5-3.5V12.3z"/>
	<path d="M257.5,26.5V15h-0.2c-1.6,0-3-1.3-3-3s1.3-3,3-3h0.2V6c0-1.9,1.5-3.5,3.5-3.5c1.9,0,3.5,1.5,3.5,3.5v3h3c1.6,0,3,1.3,3,3
		s-1.3,3-3,3h-3v10.4c0,1.6,0.7,2.4,2.2,2.4c0.2,0,0.7,0,0.8,0c1.5,0,2.9,1.3,2.9,2.9c0,1.2-0.8,2.2-1.8,2.6c-1.3,0.5-2.5,0.7-4,0.7
		C260.3,33.8,257.5,32.2,257.5,26.5z"/>
</g>
<g>
	<path class="st0" d="M0,84.4L0,84.4c0-5,4.1-7.7,10-7.7c3,0,5.1,0.4,7.2,1v-0.8c0-4.2-2.6-6.4-7-6.4c-2.4,0-4.4,0.5-6.1,1.3
		C4,71.9,3.7,72,3.5,72C2.7,72,2,71.3,2,70.5c0-0.7,0.5-1.3,1-1.5c2.3-1,4.7-1.6,7.7-1.6c3.3,0,5.9,0.9,7.6,2.6
		c1.6,1.6,2.4,3.9,2.4,6.9v12.9c0,1-0.7,1.7-1.7,1.7c-1,0-1.7-0.7-1.7-1.6v-2.1c-1.6,2.1-4.4,4-8.5,4C4.4,91.7,0,89.2,0,84.4z
		 M17.3,82.6v-2.3c-1.7-0.5-4-1-6.9-1c-4.4,0-6.9,1.9-6.9,4.9v0.1c0,3,2.7,4.7,5.9,4.7C13.8,88.9,17.3,86.3,17.3,82.6z"/>
	<path class="st0" d="M36.6,91.6h-0.2c-1,0-1.6-0.6-2-1.5l-8.8-19.9c-0.1-0.3-0.2-0.6-0.2-1c0-0.9,0.8-1.7,1.8-1.7s1.5,0.6,1.8,1.4
		l7.6,18.3l7.7-18.4c0.2-0.7,0.7-1.3,1.6-1.3c1,0,1.7,0.8,1.7,1.7c0,0.3-0.1,0.6-0.2,0.9l-8.9,20C38.2,91,37.6,91.6,36.6,91.6z"/>
	<path class="st0" d="M62.8,91.8c-6.4,0-11.7-5-11.7-12.2v-0.1c0-6.8,4.8-12.2,11.3-12.2c6.9,0,10.9,5.7,10.9,11.9
		c0,1-0.8,1.6-1.6,1.6h-17c0.5,5.1,4.1,7.9,8.3,7.9c2.9,0,5-1.1,6.8-2.7c0.3-0.2,0.6-0.4,1-0.4c0.9,0,1.5,0.7,1.5,1.5
		c0,0.4-0.2,0.8-0.5,1.1C69.4,90.4,66.8,91.8,62.8,91.8z M69.7,78.2c-0.4-4.3-2.8-8-7.5-8c-4.1,0-7.2,3.4-7.6,8H69.7z"/>
	<path class="st0" d="M78,79.6L78,79.6c0-6.7,5.2-12.4,12-12.4c3.9,0,6.5,1.5,8.6,3.4c0.3,0.2,0.5,0.7,0.5,1.2c0,1-0.8,1.7-1.7,1.7
		c-0.5,0-0.9-0.2-1.1-0.4c-1.7-1.5-3.6-2.8-6.4-2.8c-4.8,0-8.4,4-8.4,9.1v0.1c0,5.1,3.7,9.1,8.6,9.1c2.7,0,4.8-1.2,6.5-2.9
		c0.2-0.2,0.5-0.5,1-0.5c0.9,0,1.6,0.8,1.6,1.6c0,0.4-0.2,0.8-0.5,1.1c-2.2,2.2-4.9,3.8-8.9,3.8C83.1,91.8,78,86.2,78,79.6z"/>
	<path class="st0" d="M139.1,89.7c0,1-0.7,1.8-1.7,1.8c-1,0-1.7-0.8-1.7-1.8v-2.5c-1.6,2.5-4,4.6-8,4.6c-5.7,0-9-3.8-9-9.4v-13
		c0-1,0.7-1.8,1.7-1.8c1,0,1.8,0.8,1.8,1.8v12.2c0,4.4,2.4,7.1,6.5,7.1c4,0,7-3,7-7.4V69.3c0-1,0.7-1.8,1.7-1.8c1,0,1.7,0.8,1.7,1.8
		V89.7z"/>
	<path class="st0" d="M146.9,69.3c0-1,0.8-1.8,1.7-1.8c1,0,1.8,0.8,1.8,1.8v2.5c1.5-2.5,4-4.6,8-4.6c5.7,0,9,3.8,9,9.4v13
		c0,1-0.8,1.8-1.7,1.8c-1,0-1.8-0.8-1.8-1.8V77.5c0-4.4-2.4-7.1-6.5-7.1c-4,0-7,3-7,7.4v11.9c0,1-0.7,1.8-1.7,1.8
		c-1,0-1.8-0.8-1.8-1.8V69.3z"/>
	<path class="st0" d="M185.2,91.8c-6.4,0-11.7-5-11.7-12.2v-0.1c0-6.8,4.8-12.2,11.3-12.2c6.9,0,10.9,5.7,10.9,11.9
		c0,1-0.8,1.6-1.6,1.6h-17c0.5,5.1,4.1,7.9,8.3,7.9c2.9,0,5-1.1,6.8-2.7c0.3-0.2,0.6-0.4,1-0.4c0.9,0,1.5,0.7,1.5,1.5
		c0,0.4-0.2,0.8-0.5,1.1C191.8,90.4,189.2,91.8,185.2,91.8z M192.1,78.2c-0.4-4.3-2.8-8-7.5-8c-4.1,0-7.2,3.4-7.6,8H192.1z"/>
</g>
<g>
	<path class="st0" d="M214.6,70.1c0-1.9,1.5-3.5,3.5-3.5s3.5,1.5,3.5,3.5v0.3c1.7-2.3,4-4,7.6-4c5.7,0,11.1,4.5,11.1,12.6v0.1
		c0,8.1-5.3,12.6-11.1,12.6c-3.7,0-5.9-1.7-7.6-3.6v7.3c0,1.9-1.5,3.5-3.5,3.5s-3.5-1.5-3.5-3.5V70.1z M233.3,79.1L233.3,79.1
		c0-4.1-2.7-6.8-5.9-6.8s-5.9,2.7-5.9,6.7v0.1c0,4,2.7,6.7,5.9,6.7S233.3,83.2,233.3,79.1z"/>
	<path class="st0" d="M243.8,84.2L243.8,84.2c0-5.4,4-7.9,9.8-7.9c2.5,0,4.2,0.4,5.9,1V77c0-2.9-1.8-4.5-5.2-4.5
		c-1.9,0-3.5,0.3-4.8,0.7c-0.4,0.1-0.7,0.2-1,0.2c-1.6,0-2.9-1.2-2.9-2.8c0-1.2,0.8-2.3,1.9-2.7c2.2-0.8,4.5-1.3,7.8-1.3
		c3.8,0,6.5,1,8.2,2.7c1.8,1.8,2.6,4.5,2.6,7.8v11.1c0,1.9-1.5,3.3-3.4,3.3c-2,0-3.3-1.4-3.3-2.9v0c-1.7,1.9-4,3.1-7.4,3.1
		C247.6,91.7,243.8,89,243.8,84.2z M259.6,82.6v-1.2c-1.2-0.5-2.7-0.9-4.4-0.9c-3,0-4.8,1.2-4.8,3.4v0.1c0,1.9,1.5,3,3.8,3
		C257.5,86.9,259.6,85.1,259.6,82.6z"/>
	<path class="st0" d="M272,61.1c0-2,1.7-3.2,3.9-3.2s3.9,1.2,3.9,3.2v0.1c0,2-1.7,3.3-3.9,3.3S272,63.2,272,61.1L272,61.1z
		 M272.4,70.1c0-1.9,1.5-3.5,3.5-3.5c1.9,0,3.5,1.5,3.5,3.5v18c0,1.9-1.5,3.5-3.5,3.5c-1.9,0-3.5-1.5-3.5-3.5V70.1z"/>
	<path class="st0" d="M286.2,61.2c0-1.9,1.5-3.5,3.5-3.5c1.9,0,3.5,1.5,3.5,3.5V88c0,1.9-1.5,3.5-3.5,3.5c-1.9,0-3.5-1.5-3.5-3.5
		V61.2z"/>
	<path class="st0" d="M299.9,61.2c0-1.9,1.5-3.5,3.5-3.5c1.9,0,3.5,1.5,3.5,3.5V88c0,1.9-1.5,3.5-3.5,3.5c-1.9,0-3.5-1.5-3.5-3.5
		V61.2z"/>
	<path class="st0" d="M324.8,91.8c-7.3,0-12.7-5.1-12.7-12.6v-0.1c0-6.9,5-12.7,12-12.7c8.1,0,11.7,6.7,11.7,11.7
		c0,2-1.4,3.3-3.2,3.3h-13.7c0.7,3.1,2.9,4.8,5.9,4.8c1.9,0,3.5-0.6,4.9-1.6c0.5-0.4,1-0.5,1.7-0.5c1.5,0,2.7,1.2,2.7,2.7
		c0,0.9-0.4,1.6-0.9,2C331.1,90.6,328.3,91.8,324.8,91.8z M329.2,77.1c-0.4-3.1-2.2-5.2-5.1-5.2c-2.9,0-4.7,2-5.3,5.2H329.2z"/>
</g>
</svg>
