<!-- Generator: Adobe Illustrator 19.1.0, SVG Export Plug-In  -->
<svg version="1.1"
	 xmlns="http://www.w3.org/2000/svg" xmlns:xlink="http://www.w3.org/1999/xlink" xmlns:a="http://ns.adobe.com/AdobeSVGViewerExtensions/3.0/"
	 x="0px" y="0px" width="185.5px" height="33.2px" viewBox="0 0 185.5 33.2" style="enable-background:new 0 0 185.5 33.2;"
	 xml:space="preserve">
<style type="text/css">
	.st0{fill:#231F20;}
</style>
<defs>
</defs>
<g>
	<path class="st0" d="M0,30.9V2.7c0-1,0.8-1.8,1.8-1.8h19.8c0.9,0,1.6,0.7,1.6,1.6s-0.7,1.6-1.6,1.6H3.6V15h15.9
		c0.9,0,1.6,0.8,1.6,1.6c0,0.9-0.7,1.6-1.6,1.6H3.6v11.1h18.2c0.9,0,1.6,0.7,1.6,1.6s-0.7,1.6-1.6,1.6h-20C0.8,32.7,0,31.9,0,30.9z"
		/>
	<path class="st0" d="M29.1,30.2l7.7-9.4l-7.2-8.9c-0.4-0.4-0.5-0.8-0.5-1.3c0-1,0.7-1.6,1.6-1.6c0.7,0,1.1,0.3,1.5,0.8l6.8,8.6
		l6.7-8.5C46.1,9.4,46.5,9,47.2,9c0.9,0,1.6,0.7,1.6,1.6c0,0.5-0.2,0.8-0.5,1.1L41,20.7l7.6,9.4c0.3,0.4,0.5,0.8,0.5,1.3
		c0,1-0.7,1.6-1.6,1.6c-0.7,0-1.1-0.3-1.5-0.8l-7.1-9l-7.1,9c-0.4,0.5-0.9,0.9-1.5,0.9c-0.9,0-1.6-0.7-1.6-1.6
		C28.7,30.9,28.8,30.5,29.1,30.2z"/>
	<path class="st0" d="M66,33.2c-6.4,0-11.7-5-11.7-12.2v-0.1c0-6.8,4.8-12.2,11.3-12.2c6.9,0,10.9,5.7,10.9,11.9
		c0,1-0.8,1.6-1.6,1.6h-17c0.5,5.1,4.1,7.9,8.3,7.9c2.9,0,5-1.1,6.8-2.7c0.3-0.2,0.6-0.4,1-0.4c0.9,0,1.5,0.7,1.5,1.5
		c0,0.4-0.2,0.8-0.5,1.1C72.7,31.8,70,33.2,66,33.2z M73,19.7c-0.4-4.3-2.8-8-7.5-8c-4.1,0-7.2,3.4-7.6,8H73z"/>
	<path class="st0" d="M82.6,10.8c0-1,0.8-1.8,1.7-1.8c1,0,1.8,0.8,1.8,1.8v4.4c1.7-3.9,5.1-6.3,8.1-6.3c1,0,1.7,0.8,1.7,1.8
		c0,1-0.6,1.6-1.5,1.8c-4.5,0.5-8.3,4-8.3,10.7v8c0,1-0.7,1.8-1.7,1.8c-1,0-1.8-0.8-1.8-1.8V10.8z"/>
	<path class="st0" d="M99.6,21.1L99.6,21.1c0-6.7,5.2-12.4,12-12.4c3.9,0,6.5,1.5,8.6,3.4c0.3,0.2,0.5,0.7,0.5,1.2
		c0,1-0.8,1.7-1.7,1.7c-0.5,0-0.9-0.2-1.1-0.4c-1.7-1.5-3.6-2.8-6.4-2.8c-4.8,0-8.4,4-8.4,9.1V21c0,5.1,3.7,9.1,8.6,9.1
		c2.7,0,4.8-1.2,6.5-2.9c0.2-0.2,0.5-0.5,1-0.5c0.9,0,1.6,0.8,1.6,1.6c0,0.4-0.2,0.8-0.5,1.1c-2.2,2.2-4.9,3.8-8.9,3.8
		C104.8,33.2,99.6,27.7,99.6,21.1z"/>
	<path class="st0" d="M127,1.9c0-1.1,0.9-1.9,2-1.9c1.2,0,2.1,0.7,2.1,1.9v0.6c0,1.1-0.9,1.9-2.1,1.9c-1.1,0-2-0.8-2-1.9V1.9z
		 M127.3,10.8c0-1,0.8-1.8,1.7-1.8c1,0,1.8,0.8,1.8,1.8v20.4c0,1-0.7,1.8-1.7,1.8s-1.8-0.8-1.8-1.8V10.8z"/>
	<path class="st0" d="M137.4,21.1L137.4,21.1c0-6.7,5.2-12.4,12-12.4c3.9,0,6.5,1.5,8.6,3.4c0.3,0.2,0.5,0.7,0.5,1.2
		c0,1-0.8,1.7-1.7,1.7c-0.5,0-0.9-0.2-1.1-0.4c-1.7-1.5-3.6-2.8-6.4-2.8c-4.8,0-8.4,4-8.4,9.1V21c0,5.1,3.7,9.1,8.6,9.1
		c2.7,0,4.8-1.2,6.5-2.9c0.2-0.2,0.5-0.5,1-0.5c0.9,0,1.6,0.8,1.6,1.6c0,0.4-0.2,0.8-0.5,1.1c-2.2,2.2-4.9,3.8-8.9,3.8
		C142.6,33.2,137.4,27.7,137.4,21.1z"/>
	<path class="st0" d="M175.1,33.2c-6.4,0-11.7-5-11.7-12.2v-0.1c0-6.8,4.8-12.2,11.3-12.2c6.9,0,10.9,5.7,10.9,11.9
		c0,1-0.8,1.6-1.6,1.6h-17c0.5,5.1,4.1,7.9,8.3,7.9c2.9,0,5-1.1,6.8-2.7c0.3-0.2,0.6-0.4,1-0.4c0.9,0,1.5,0.7,1.5,1.5
		c0,0.4-0.2,0.8-0.5,1.1C181.7,31.8,179.1,33.2,175.1,33.2z M182,19.7c-0.4-4.3-2.8-8-7.5-8c-4.1,0-7.2,3.4-7.6,8H182z"/>
</g>
</svg>
