<!-- Generator: Adobe Illustrator 19.1.0, SVG Export Plug-In  -->
<svg version="1.1"
	 xmlns="http://www.w3.org/2000/svg" xmlns:xlink="http://www.w3.org/1999/xlink" xmlns:a="http://ns.adobe.com/AdobeSVGViewerExtensions/3.0/"
	 x="0px" y="0px" width="265.7px" height="33.2px" viewBox="0 0 265.7 33.2" style="enable-background:new 0 0 265.7 33.2;"
	 xml:space="preserve">
<style type="text/css">
	.st0{fill:#231F20;}
</style>
<defs>
</defs>
<g>
	<path class="st0" d="M0,2.7c0-1,0.8-1.8,1.8-1.8H11c10,0,16.9,6.9,16.9,15.8v0.1c0,8.9-6.9,15.9-16.9,15.9H1.8
		c-1,0-1.8-0.8-1.8-1.8V2.7z M11,29.4c8,0,13.2-5.4,13.2-12.5v-0.1c0-7-5.1-12.6-13.2-12.6H3.6v25.2H11z"/>
	<path class="st0" d="M34.9,1.9c0-1.1,0.9-1.9,2-1.9c1.2,0,2.1,0.7,2.1,1.9v0.6c0,1.1-0.9,1.9-2.1,1.9c-1.1,0-2-0.8-2-1.9V1.9z
		 M35.2,10.8C35.2,9.8,36,9,37,9c1,0,1.8,0.8,1.8,1.8v20.4c0,1-0.7,1.8-1.7,1.8s-1.8-0.8-1.8-1.8V10.8z"/>
	<path class="st0" d="M45.4,21.1L45.4,21.1c0-6.7,5.2-12.4,12-12.4c3.9,0,6.5,1.5,8.6,3.4c0.3,0.2,0.5,0.7,0.5,1.2
		c0,1-0.8,1.7-1.7,1.7c-0.5,0-0.9-0.2-1.1-0.4c-1.7-1.5-3.6-2.8-6.4-2.8c-4.8,0-8.4,4-8.4,9.1V21c0,5.1,3.7,9.1,8.6,9.1
		c2.7,0,4.8-1.2,6.5-2.9c0.2-0.2,0.5-0.5,1-0.5c0.9,0,1.6,0.8,1.6,1.6c0,0.4-0.2,0.8-0.5,1.1c-2.2,2.2-4.9,3.8-8.9,3.8
		C50.6,33.2,45.4,27.7,45.4,21.1z"/>
	<path class="st0" d="M74,26.5V12.3h-1.9c-0.8,0-1.5-0.7-1.5-1.5c0-0.9,0.7-1.5,1.5-1.5H74V3.7c0-1,0.7-1.8,1.7-1.8
		c1,0,1.8,0.8,1.8,1.8v5.5h6.1c0.9,0,1.6,0.7,1.6,1.5c0,0.9-0.7,1.5-1.6,1.5h-6.1V26c0,2.9,1.6,3.9,4,3.9c1.2,0,1.9-0.3,2.1-0.3
		c0.8,0,1.5,0.7,1.5,1.5c0,0.6-0.4,1.1-1,1.4c-1,0.4-2.1,0.6-3.5,0.6C76.9,33.1,74,31.2,74,26.5z"/>
	<path class="st0" d="M91.1,1.9c0-1.1,0.9-1.9,2-1.9c1.2,0,2.1,0.7,2.1,1.9v0.6c0,1.1-0.9,1.9-2.1,1.9c-1.1,0-2-0.8-2-1.9V1.9z
		 M91.4,10.8c0-1,0.8-1.8,1.7-1.8c1,0,1.8,0.8,1.8,1.8v20.4c0,1-0.7,1.8-1.7,1.8s-1.8-0.8-1.8-1.8V10.8z"/>
	<path class="st0" d="M101.6,21.1L101.6,21.1c0-6.7,5.2-12.4,12.3-12.4c7,0,12.2,5.5,12.2,12.2V21c0,6.6-5.2,12.3-12.3,12.3
		C106.8,33.2,101.6,27.7,101.6,21.1z M122.5,21.1L122.5,21.1c0-5.1-3.8-9.3-8.7-9.3c-5.1,0-8.6,4.1-8.6,9.1V21c0,5,3.7,9.1,8.7,9.1
		C119,30.1,122.5,26,122.5,21.1z"/>
	<path class="st0" d="M132.4,10.8c0-1,0.8-1.8,1.7-1.8c1,0,1.8,0.8,1.8,1.8v2.5c1.5-2.5,4-4.6,8-4.6c5.7,0,9,3.8,9,9.4v13
		c0,1-0.8,1.8-1.7,1.8c-1,0-1.8-0.8-1.8-1.8V19c0-4.4-2.4-7.1-6.5-7.1c-4,0-7,3-7,7.4v11.9c0,1-0.7,1.8-1.7,1.8
		c-1,0-1.8-0.8-1.8-1.8V10.8z"/>
	<path class="st0" d="M160.4,10.8c0-1,0.8-1.8,1.7-1.8c1,0,1.8,0.8,1.8,1.8v2.5c1.5-2.5,4-4.6,8-4.6c5.7,0,9,3.8,9,9.4v13
		c0,1-0.8,1.8-1.7,1.8c-1,0-1.8-0.8-1.8-1.8V19c0-4.4-2.4-7.1-6.5-7.1c-4,0-7,3-7,7.4v11.9c0,1-0.7,1.8-1.7,1.8
		c-1,0-1.8-0.8-1.8-1.8V10.8z"/>
	<path class="st0" d="M186.6,25.9L186.6,25.9c0-5,4.1-7.7,10-7.7c3,0,5.1,0.4,7.2,1v-0.8c0-4.2-2.6-6.4-7-6.4
		c-2.4,0-4.4,0.5-6.1,1.3c-0.2,0.1-0.5,0.1-0.6,0.1c-0.8,0-1.5-0.7-1.5-1.5c0-0.7,0.5-1.3,1-1.5c2.3-1,4.7-1.6,7.7-1.6
		c3.3,0,5.9,0.9,7.6,2.6c1.6,1.6,2.4,3.9,2.4,6.9v12.9c0,1-0.7,1.7-1.7,1.7c-1,0-1.7-0.7-1.7-1.6v-2.1c-1.6,2.1-4.4,4-8.5,4
		C191,33.2,186.6,30.7,186.6,25.9z M203.9,24.1v-2.3c-1.7-0.5-4-1-6.9-1c-4.4,0-6.9,1.9-6.9,4.9v0.1c0,3,2.7,4.7,5.9,4.7
		C200.3,30.4,203.9,27.8,203.9,24.1z"/>
	<path class="st0" d="M214.6,1.9c0-1.1,0.9-1.9,2-1.9c1.2,0,2.1,0.7,2.1,1.9v0.6c0,1.1-0.9,1.9-2.1,1.9c-1.1,0-2-0.8-2-1.9V1.9z
		 M215,10.8c0-1,0.8-1.8,1.7-1.8c1,0,1.8,0.8,1.8,1.8v20.4c0,1-0.7,1.8-1.7,1.8s-1.8-0.8-1.8-1.8V10.8z"/>
	<path class="st0" d="M226.6,10.8c0-1,0.8-1.8,1.7-1.8c1,0,1.8,0.8,1.8,1.8v4.4c1.7-3.9,5.1-6.3,8.1-6.3c1,0,1.7,0.8,1.7,1.8
		c0,1-0.6,1.6-1.5,1.8c-4.5,0.5-8.3,4-8.3,10.7v8c0,1-0.7,1.8-1.7,1.8c-1,0-1.8-0.8-1.8-1.8V10.8z"/>
	<path class="st0" d="M255.2,33.2c-6.4,0-11.7-4.9-11.7-12.2v-0.1c0-6.8,4.8-12.2,11.3-12.2c6.9,0,10.9,5.7,10.9,11.9
		c0,1-0.8,1.6-1.6,1.6h-17c0.5,5.1,4.1,7.9,8.3,7.9c2.9,0,5-1.1,6.8-2.7c0.3-0.2,0.6-0.4,1-0.4c0.9,0,1.5,0.7,1.5,1.5
		c0,0.4-0.2,0.8-0.5,1.1C261.9,31.8,259.2,33.2,255.2,33.2z M262.2,19.7c-0.4-4.3-2.8-8-7.5-8c-4.1,0-7.2,3.4-7.6,8H262.2z"/>
</g>
</svg>
