<?xml version="1.0" encoding="utf-8"?>
<!-- Generator: Adobe Illustrator 19.1.0, SVG Export Plug-In . SVG Version: 6.00 Build 0)  -->
<svg version="1.1" id="Layer_1" xmlns="http://www.w3.org/2000/svg" xmlns:xlink="http://www.w3.org/1999/xlink" x="0px" y="0px"
	 width="200px" height="41px" viewBox="0 0 200 41" style="enable-background:new 0 0 200 41;" xml:space="preserve">
<style type="text/css">
	.st0{fill:#FFFFFF;}
</style>
<g>
	<path class="st0" d="M16.2,13h5.1c0.2,0,0.3,0.1,0.3,0.3c0,0.2-0.1,0.3-0.3,0.3H21c0.1,0.3,0.2,0.6,0.2,1c0,2.3-3.1,3.2-5.3,3.3
		v-0.6c3.2-0.2,4-2.1,4-2.6c0-0.3-0.1-0.7-0.4-1.1h-3.3c-0.2,0-0.3-0.1-0.3-0.3C15.9,13.1,16,13,16.2,13z M16.8,15.1
		c0-0.3,0.3-0.6,0.6-0.6c0.3,0,0.6,0.3,0.6,0.6c0,0.3-0.3,0.6-0.6,0.6C17.1,15.7,16.8,15.4,16.8,15.1z M8.3,13h5
		c0.2,0,0.3,0.1,0.3,0.3c0,0.2-0.1,0.3-0.3,0.3H10c-0.3,0.4-0.3,0.7-0.4,1.1c0,0.5,0.7,2.4,4,2.6v0.6c-2.2-0.1-5.3-1-5.3-3.3
		c0-0.4,0.1-0.7,0.2-1H8.3c-0.2,0-0.3-0.1-0.3-0.3C8,13.1,8.1,13,8.3,13z M12.7,15.1c0,0.3-0.3,0.6-0.6,0.6c-0.3,0-0.6-0.3-0.6-0.6
		c0-0.3,0.3-0.6,0.6-0.6C12.4,14.5,12.7,14.8,12.7,15.1z M13.6,18.7c-3.1,0.6-5.5,3.5-5.5,7v0.9h-2c0-0.1,0-0.3,0-0.4
		c0-4.1,3.3-7.4,7.5-8V18.7z M15.6,26.5H14v-8.2l0.8,0.8l0.8-0.8V26.5z M15.6,17.9L15,18.6v-5.1h-0.4v5.1L14,17.8V13h1.6V17.9z
		 M23.4,26.5h-2v-0.9c0-3.5-2.4-6.4-5.5-7v-0.5c4.2,0.5,7.5,3.9,7.5,8C23.4,26.2,23.4,26.4,23.4,26.5z"/>
	<g>
		<path class="st0" d="M50.6,20.9c-1.2,0.2-1.3,0.3-1.3,1.5v1.8c0,0.7,0,1.4,0.1,2c-1.2,0.3-2.8,0.7-4.4,0.7c-4.3,0-7.3-2.8-7.3-7
			c0-4.8,3.7-7.2,7.5-7.2c1.7,0,3.2,0.5,3.8,0.6c0.1,0.7,0.2,1.9,0.3,3.2l-0.6,0.1c-0.5-2.6-2-3.2-3.9-3.2c-3,0-5.2,2.3-5.2,6.2
			c0,3,1.7,6.5,5.5,6.5c0.7,0,1.3-0.1,1.7-0.4c0.4-0.2,0.6-0.5,0.6-1.4v-1.8c0-1.5-0.1-1.6-2.1-1.8v-0.6h5V20.9z"/>
		<path class="st0" d="M54.2,19.4c0.6-1.1,1.4-2.2,2.4-2.2c0.7,0,1.1,0.6,1.1,1c0,0.4-0.3,0.8-0.6,1c-0.2,0.1-0.4,0.1-0.5,0
			c-0.3-0.3-0.5-0.4-0.8-0.4c-0.5,0-1.1,0.6-1.6,1.8v3.8c0,1.4,0.1,1.5,1.6,1.6v0.5h-4.5V26c1.2-0.1,1.4-0.2,1.4-1.6v-4.3
			c0-1.4-0.1-1.5-1.2-1.6V18c1-0.2,1.8-0.4,2.8-0.8L54.2,19.4L54.2,19.4z"/>
		<path class="st0" d="M64.6,26.8c-0.3,0-0.7-0.2-0.9-0.4c-0.3-0.3-0.4-0.6-0.5-0.9c-0.8,0.6-1.7,1.3-2.3,1.3
			c-1.4,0-2.4-1.2-2.4-2.5c0-1,0.5-1.7,1.6-2.1c1.2-0.4,2.6-1,3.1-1.4v-0.4c0-1.5-0.7-2.4-1.7-2.4c-0.4,0-0.7,0.1-0.9,0.4
			c-0.2,0.3-0.4,0.7-0.6,1.4c-0.1,0.3-0.3,0.5-0.6,0.5c-0.4,0-0.8-0.4-0.8-0.9c0-0.3,0.2-0.5,0.6-0.8c0.5-0.4,1.8-1.2,3-1.5
			c0.6,0,1.2,0.2,1.6,0.6c0.7,0.6,0.9,1.5,0.9,2.6v3.8c0,0.9,0.4,1.2,0.7,1.2c0.2,0,0.5-0.1,0.7-0.2l0.2,0.5L64.6,26.8z M63.2,21.6
			c-0.4,0.2-1.4,0.7-1.8,0.9c-0.8,0.4-1.2,0.8-1.2,1.5c0,1.1,0.8,1.6,1.4,1.6c0.5,0,1.2-0.4,1.6-0.7V21.6z"/>
		<path class="st0" d="M72.6,26.6V26c1.2-0.1,1.3-0.3,1.3-1.7v-3.5c0-1.4-0.5-2.4-1.8-2.4c-0.8,0-1.6,0.5-2.2,1.1v4.9
			c0,1.4,0.1,1.5,1.3,1.6v0.5h-4.3V26c1.3-0.1,1.4-0.2,1.4-1.6v-4.3c0-1.3-0.1-1.4-1.2-1.6V18c0.9-0.2,1.9-0.4,2.7-0.8v1.6
			c0.4-0.3,0.8-0.6,1.3-1c0.6-0.4,1.1-0.6,1.6-0.6c1.6,0,2.5,1.2,2.5,3.2v4c0,1.4,0.1,1.5,1.3,1.6v0.5H72.6z"/>
		<path class="st0" d="M86.4,26c-0.4,0.1-1.9,0.4-3.1,0.8v-1.4l-1.2,0.7c-0.8,0.5-1.3,0.6-1.5,0.6c-1.6,0-3.7-1.5-3.7-4.4
			c0-2.9,2.4-5.2,5.1-5.2c0.3,0,0.9,0.1,1.3,0.2v-3c0-1.4-0.1-1.4-1.5-1.5v-0.5c1-0.1,2.4-0.5,3.1-0.7v12.4c0,1.1,0.1,1.2,0.9,1.3
			l0.6,0.1V26z M83.3,19.1c-0.5-0.7-1.3-1.1-2-1.1c-0.9,0-2.6,0.8-2.6,3.8c0,2.5,1.4,3.7,2.7,3.7c0.7,0,1.4-0.3,1.9-0.7V19.1z"/>
		<path class="st0" d="M97.1,13c2.5,0,4.3,0.5,5.6,1.8c1,1,1.7,2.5,1.7,4.5c0,2.5-0.9,4.3-2.4,5.6c-1.5,1.2-3.5,1.7-5.9,1.7h-4.7V26
			c1.7-0.1,1.9-0.2,1.9-2v-8.4c0-1.8-0.2-1.9-1.7-2V13H97.1z M94.9,23.8c0,1.6,0.7,2,2.1,2c3.7,0,5.4-2.9,5.4-6.2c0-2.1-0.8-4-2.3-5
			c-0.9-0.6-2-0.9-3.4-0.9c-0.8,0-1.3,0.1-1.5,0.3c-0.2,0.1-0.3,0.4-0.3,1.2V23.8z"/>
		<path class="st0" d="M115.2,26.1c-0.4,0.1-1,0.2-1.5,0.3c-0.5,0.1-1,0.3-1.4,0.4l-0.1-0.1v-1.5c-0.5,0.4-0.9,0.7-1.5,1.1
			c-0.6,0.4-1,0.5-1.5,0.5c-1.3,0-2.4-0.9-2.4-3.1v-4.1c0-1.1-0.2-1.2-0.7-1.3l-0.6-0.1v-0.5c0.4,0,0.9-0.1,1.4-0.1
			c0.5-0.1,1.1-0.2,1.4-0.2c-0.1,0.6-0.1,1.6-0.1,3v2.8c0,1.9,0.8,2.4,1.7,2.4c0.7,0,1.5-0.3,2.1-1v-4.9c0-1.1-0.2-1.2-0.8-1.3
			l-0.7-0.1v-0.5c0.5,0,1.2-0.1,1.8-0.2c0.6-0.1,1-0.1,1.3-0.2v6.9c0,1,0.2,1.2,0.9,1.2l0.5,0V26.1z"/>
		<path class="st0" d="M123,24.7c-0.9,1.2-2.2,2.1-3.3,2.1c-2.5,0-4-2.1-4-4.3c0-1.6,0.7-3,2-4.1c1-0.8,2.2-1.2,2.9-1.2h0
			c0.8,0,1.5,0.3,1.8,0.6c0.3,0.2,0.3,0.4,0.3,0.6c0,0.4-0.4,0.9-0.7,0.9c-0.1,0-0.2-0.1-0.4-0.2c-0.6-0.6-1.3-0.9-2-0.9
			c-1.3,0-2.4,1.1-2.4,3.3c0,2.9,1.9,3.8,3,3.8c0.8,0,1.5-0.2,2.4-1.1L123,24.7z"/>
	</g>
	<rect x="29.8" y="13" class="st0" width="0.7" height="13.6"/>
	<g>
		<path class="st0" d="M129.9,22.2c0,2.2,0.2,2.6,0.4,2.9c0.2,0.2,0.4,0.3,1.1,0.3h2c0.6,0,0.8-0.1,1-0.3c0.2-0.2,0.3-0.5,0.3-1.5
			h1.2c0,1.5-0.2,2-0.6,2.5c-0.3,0.4-0.8,0.5-1.7,0.5h-2.4c-0.9,0-1.5-0.1-1.9-0.5c-0.6-0.6-0.8-1.4-0.8-4.3c0-2.9,0.2-3.7,0.8-4.3
			c0.4-0.4,0.9-0.5,1.9-0.5h2c0.9,0,1.5,0.1,1.8,0.5c0.6,0.6,0.8,1.5,0.8,4.2V22c0,0.1-0.1,0.2-0.2,0.2H129.9z M129.9,21.1h4.8
			c0-2-0.2-2.5-0.4-2.8c-0.2-0.2-0.4-0.3-1.1-0.3h-1.8c-0.7,0-0.9,0.1-1.1,0.3C130.1,18.6,130,19.1,129.9,21.1z"/>
		<path class="st0" d="M140.6,18.2c1.2-1,1.6-1.3,2.6-1.3h1.1c0.9,0,1.2,0.2,1.6,0.5c0.4,0.4,0.5,0.9,0.5,1.9v6.1h1.5v1.1h-4.2v-1.1
			h1.5v-6c0-0.6-0.1-0.8-0.3-1.1c-0.2-0.2-0.4-0.3-1-0.3h-0.9c-0.8,0-1.3,0.2-2.2,0.9v6.5h1.4v1.1h-4.2v-1.1h1.5v-7.4h-1.5v-1.2h2.7
			V18.2z"/>
		<path class="st0" d="M152.9,26.5v-1.1h1.6V14.7h-1.6v-1.2h2.8v11.8h1.5v1.1H152.9z"/>
		<path class="st0" d="M158.9,26.5v-1.1h1.5v-7.4h-1.5v-1.2h2.8v8.5h1.5v1.1H158.9z M160.3,13.5h1.5v1.7h-1.5V13.5z"/>
		<path class="st0" d="M165.5,28.8c-0.4-0.4-0.5-0.8-0.5-1.9h1.2c0,0.6,0.1,0.8,0.3,1c0.1,0.1,0.3,0.2,0.9,0.2h2.4
			c0.5,0,0.7-0.1,0.9-0.2c0.2-0.2,0.3-0.4,0.3-1.4v-1.9c-1.2,1-1.7,1.3-2.6,1.3h-1c-1,0-1.5-0.2-1.9-0.6c-0.5-0.6-0.7-1.4-0.7-3.9
			s0.2-3.3,0.7-3.9c0.4-0.4,0.9-0.6,1.9-0.6h1c0.9,0,1.4,0.3,2.6,1.3v-1.3h2.7v1.2h-1.5v8.3c0,1.5-0.1,2-0.5,2.4
			c-0.3,0.3-0.7,0.5-1.6,0.5h-3C166.2,29.2,165.8,29.1,165.5,28.8z M166.4,24.4c0.2,0.2,0.5,0.3,1.2,0.3h1.1c0.8,0,1.3-0.2,2.2-0.9
			V19c-0.9-0.6-1.5-0.9-2.3-0.9h-1c-0.7,0-1,0.1-1.2,0.3c-0.3,0.3-0.4,0.9-0.4,3C166,23.5,166.1,24,166.4,24.4z"/>
		<path class="st0" d="M178,18.2c1.2-1,1.6-1.3,2.6-1.3h1.1c0.9,0,1.2,0.2,1.6,0.5c0.4,0.4,0.5,0.9,0.5,1.9v6.1h1.5v1.1h-4.2v-1.1
			h1.5v-6c0-0.6-0.1-0.8-0.3-1.1c-0.2-0.2-0.4-0.3-1-0.3h-0.9c-0.8,0-1.3,0.2-2.2,0.9v6.5h1.4v1.1h-4.2v-1.1h1.5v-7.4h-1.5v-1.2h2.7
			V18.2z"/>
		<path class="st0" d="M187.9,22.2c0,2.2,0.2,2.6,0.4,2.9c0.2,0.2,0.4,0.3,1.1,0.3h2c0.6,0,0.8-0.1,1-0.3c0.2-0.2,0.3-0.5,0.3-1.5
			h1.2c0,1.5-0.2,2-0.6,2.5c-0.3,0.4-0.8,0.5-1.7,0.5h-2.4c-0.9,0-1.5-0.1-1.9-0.5c-0.6-0.6-0.8-1.4-0.8-4.3c0-2.9,0.2-3.7,0.8-4.3
			c0.4-0.4,0.9-0.5,1.9-0.5h2c0.9,0,1.5,0.1,1.8,0.5c0.6,0.6,0.8,1.5,0.8,4.2V22c0,0.1-0.1,0.2-0.2,0.2H187.9z M187.9,21.1h4.8
			c0-2-0.2-2.5-0.4-2.8c-0.2-0.2-0.4-0.3-1.1-0.3h-1.8c-0.7,0-0.9,0.1-1.1,0.3C188,18.6,187.9,19.1,187.9,21.1z"/>
	</g>
</g>
</svg>
