<?xml version="1.0" encoding="utf-8"?>
<!-- Generator: Adobe Illustrator 19.1.0, SVG Export Plug-In . SVG Version: 6.00 Build 0)  -->
<svg version="1.1" id="Layer_1" xmlns="http://www.w3.org/2000/svg" xmlns:xlink="http://www.w3.org/1999/xlink" x="0px" y="0px"
	 width="100px" height="103.8px" viewBox="0 -1.8 100 103.8" style="enable-background:new 0 -1.8 100 103.8;" xml:space="preserve"
	>
<path d="M100,0.6c-0.1-1.3-1.2-2.3-2.5-2.3h-95c-1.3,0-2.4,1-2.5,2.3l0,64.2c0,1.4,1.1,2.5,2.5,2.5h95c1.4,0,2.5-1.1,2.5-2.5
	L100,0.6z M96,55.2H4v-53h92V55.2z"/>
<path d="M66,79.2c-4-1-5-4-5-8v-1H50H39v1c0,4-1,7-5,8c-1,0.2-1,2,0,2h16h16C67,81.2,67,79.5,66,79.2z"/>
</svg>
