<?xml version="1.0" encoding="utf-8"?>
<!-- Generator: Adobe Illustrator 19.1.0, SVG Export Plug-In . SVG Version: 6.00 Build 0)  -->
<svg version="1.1" id="Layer_1" xmlns="http://www.w3.org/2000/svg" xmlns:xlink="http://www.w3.org/1999/xlink" x="0px" y="0px"
	 width="100px" height="100px" viewBox="0 0 100 100" style="enable-background:new 0 0 100 100;" xml:space="preserve">
<style type="text/css">
	.st0{fill:#FFFFFF;}
</style>
<path class="st0" d="M65.4,42.7l-6.6-6.6c-0.6-0.5-1.1,0.1-1.5,0.3c-9.9,5.5-35.6,38-40.4,43.8c-0.3,0.4-0.6,0.7-0.6,1
	c-0.3,2.7,1,4,3.6,3.6c0.3,0,0.6-0.3,1-0.6c5.9-4.7,38.6-30.4,44.2-40C65.4,43.7,65.9,43.2,65.4,42.7z M83,15
	c-0.4,1.6-1.2,2.7-2.1,3.6c-4.3,4.3-12.5,2.4-16.8,6.8c-1.7,1.6-2.8,4.3-2.9,8.4l6.8,6.8c3.7,0.3,7.1-1.3,9.8-4
	C82.6,31.7,85.1,23.2,83,15z"/>
</svg>
