<?xml version="1.0" encoding="utf-8"?>
<!-- Generator: Adobe Illustrator 19.1.0, SVG Export Plug-In . SVG Version: 6.00 Build 0)  -->
<svg version="1.1" id="Layer_1" xmlns:sketch="http://www.bohemiancoding.com/sketch/ns"
	 xmlns="http://www.w3.org/2000/svg" xmlns:xlink="http://www.w3.org/1999/xlink" x="0px" y="0px" width="22px" height="19.4px"
	 viewBox="-13 16.5 22 19.4" style="enable-background:new -13 16.5 22 19.4;" xml:space="preserve">
<title>loud_speaker_volume_up</title>
<desc>Created with Sketch.</desc>
<path sketch:type="MSShapeGroup" d="M-12.9,23.2v6c0,0.6,0.5,1,1,1h4l5.5,3.7c0.8,0.7,1.5,0.4,1.5-0.7v-14c0-1.1-0.7-1.4-1.5-0.7
	l-5.5,3.7h-4C-12.4,22.2-12.9,22.6-12.9,23.2z M-7.9,23.2h0.4l0.3-0.2l5.4-3.6v13.7l-5.4-3.6l-0.3-0.2h-0.4h-4v-6
	C-11.9,23.2-7.9,23.2-7.9,23.2z M5.6,19c0.3,0.4,0.6,0.9,0.9,1.5c0.8,1.6,1.3,3.5,1.3,5.7s-0.5,4.1-1.3,5.7
	c-0.3,0.6-0.6,1.1-0.9,1.5c-0.2,0.2-0.3,0.4-0.4,0.5c-0.2,0.2-0.2,0.5,0,0.7s0.5,0.2,0.7,0c0.1-0.1,0.3-0.3,0.5-0.6
	c0.3-0.5,0.7-1,1-1.6c0.9-1.8,1.4-3.8,1.4-6.2S8.4,21.8,7.5,20c-0.3-0.6-0.6-1.2-1-1.6C6.2,18.2,6.1,18,6,17.9
	c-0.2-0.2-0.5-0.2-0.7,0s-0.2,0.5,0,0.7C5.4,18.6,5.4,18.8,5.6,19z M3.4,20.9c0.2,0.4,0.4,0.8,0.6,1.2c0.5,1.3,0.8,2.7,0.8,4.1
	S4.5,29,4,30.3c-0.2,0.5-0.4,0.9-0.6,1.2c-0.1,0.2-0.2,0.4-0.2,0.4c-0.1,0.2-0.1,0.5,0.2,0.7c0.2,0.1,0.5,0.1,0.7-0.2
	c0.1-0.1,0.2-0.3,0.3-0.5c0.2-0.4,0.4-0.8,0.6-1.3c0.6-1.4,0.9-2.9,0.9-4.4s-0.3-3-0.9-4.4c-0.2-0.5-0.4-0.9-0.6-1.3
	c-0.1-0.2-0.2-0.4-0.3-0.5c-0.1-0.2-0.5-0.3-0.7-0.2s-0.3,0.5-0.2,0.7C3.2,20.5,3.4,20.7,3.4,20.9z M1.6,23.9
	c0.3,0.7,0.5,1.5,0.5,2.3s-0.2,1.6-0.5,2.3c-0.2,0.4-0.3,0.8-0.5,0.9C1,29.6,1,29.9,1.2,30.1C1.5,30.2,1.8,30.2,2,30
	c0.1-0.2,0.3-0.6,0.5-1.1C2.8,28.2,3,27.2,3,26.2s-0.2-1.8-0.5-2.7C2.2,23,2.1,22.6,2,22.5c-0.1-0.2-0.5-0.3-0.7-0.1
	C1,22.5,1,22.9,1.1,23.1C1.4,23.1,1.5,23.5,1.6,23.9z"/>
</svg>
