<?xml version="1.0" encoding="utf-8"?>
<!-- Generator: Adobe Illustrator 19.1.0, SVG Export Plug-In . SVG Version: 6.00 Build 0)  -->
<svg version="1.1" id="Layer_1" xmlns="http://www.w3.org/2000/svg" xmlns:xlink="http://www.w3.org/1999/xlink" x="0px" y="0px"
	 width="269.1px" height="356px" viewBox="0 0 269.1 356" style="enable-background:new 0 0 269.1 356;" xml:space="preserve">
<style type="text/css">
	.st0{fill:#FFFFFF;}
	.st1{opacity:0.77;}
	.st2{opacity:0.7;}
	.st3{opacity:0.85;}
	.st4{opacity:0.66;}
	.st5{opacity:0.4;}
	.st6{opacity:0.25;}
	.st7{opacity:0.5;}
	.st8{opacity:0.35;}
	.st9{opacity:0.8;}
	.st10{opacity:0.3;}
	.st11{opacity:0.9;}
	.st12{opacity:0.19;}
</style>
<path class="st0" d="M225.6,119.9L221.3,99l-32.1-17.6l7.3-6.2l-18-31.4L160.9,43l-31-24.1L97.5,54.2l-10.8-4.9l-60,66l34.7,80.9
	l15.4,35.9l-5.4-12.5l-3.4,26.6l-20,58.2l73.7,32.4h50l-0.2-83.2l26.6-22.9L222,169l19.8-21.7L225.6,119.9z M134.2,71L134.2,71
	L134.2,71L134.2,71z"/>
<polygon class="st1" points="152.8,225.8 118,148.6 80.7,119.2 61.5,196.2 121.8,336.8 "/>
<g class="st2">
	<path d="M121.8,336.8l-73.7-32.4l20-58.2l68.3-57.1l46.9,2.7l-30.5,34L121.8,336.8z"/>
</g>
<polygon class="st3" points="222,169 162.7,164.4 118,148.6 152.8,225.8 171.7,253.6 198.3,230.8 "/>
<polygon points="160.9,43 178.5,43.8 196.4,75.2 151.5,113.8 127.7,77.9 "/>
<polygon class="st2" points="97.5,54.2 129.9,18.9 160.9,43 134.2,71 "/>
<polygon class="st4" points="183.4,191.8 222,169 241.8,147.3 225.6,119.9 162.7,164.4 "/>
<polygon class="st5" points="151.5,113.8 162.7,164.4 225.6,119.9 221.3,99 189.2,81.4 "/>
<polygon points="221.3,99 225.6,119.9 170.5,158.9 "/>
<polygon class="st6" points="189.2,81.4 151.5,113.8 154.7,92.5 "/>
<polygon class="st7" points="134.2,71 160.9,43 178.5,43.8 146.6,84 "/>
<polygon class="st2" points="97.5,54.2 132,63.9 160.9,43 134.2,71 "/>
<polygon class="st5" points="80.7,119.2 151.5,113.8 162.7,164.4 136.5,189.1 "/>
<polygon class="st3" points="26.7,115.3 86.7,49.3 134.2,71 154.7,92.5 151.5,113.8 111.2,116.9 95,94.6 50.7,171.1 "/>
<polygon class="st8" points="225.6,119.9 162.7,164.4 157.4,140.5 "/>
<polygon class="st9" points="189.2,81.4 162.9,114.5 162.7,164.4 151.5,113.8 "/>
<polygon class="st10" points="136.3,189 133.6,224.6 135.8,286.7 152.8,225.8 "/>
<polygon class="st2" points="80.7,119.2 93.4,107.9 111.2,116.9 113.5,130.5 "/>
<polygon class="st5" points="68.1,246.2 104.2,295.7 133.6,224.6 79,237.1 71.5,219.6 "/>
<polygon class="st5" points="113.5,130.5 118,148.6 151.5,113.8 "/>
<polygon class="st11" points="121.8,336.8 152.8,225.8 171.7,253.6 171.8,336.8 "/>
<polygon class="st11" points="26.7,115.3 86.7,49.3 95,94.6 80.7,119.2 61.5,196.2 "/>
<polygon class="st2" points="26.7,115.3 90.3,68.7 134.2,71 86.7,49.3 "/>
<polygon class="st11" points="80.7,119.2 95,94.6 111.2,116.9 93.4,107.9 "/>
<polygon class="st12" points="171.7,253.6 135.8,286.7 57.9,308.6 121.8,336.8 171.8,336.8 "/>
<polygon class="st10" points="104.1,295.6 135.8,286.7 121.8,336.8 "/>
</svg>
