<?xml version="1.0" encoding="utf-8"?>
<!-- Generator: Adobe Illustrator 19.1.0, SVG Export Plug-In . SVG Version: 6.00 Build 0)  -->
<svg version="1.1" id="Layer_1" xmlns="http://www.w3.org/2000/svg" xmlns:xlink="http://www.w3.org/1999/xlink" x="0px" y="0px"
	 width="100px" height="100px" viewBox="0 0 100 100" style="enable-background:new 0 0 100 100;" xml:space="preserve">
<path d="M86.7,20.8C80.6,14.9,74,12.2,67,12.9c-7.5,0.7-13.4,5.3-17,8.9c-3.6-3.6-9.5-8.2-17-8.9c-6.9-0.7-13.6,2-19.7,7.9
	c-7.6,7.4-8,18.9-5,27C13.7,62.6,29.8,74,42.8,83.1c1.6,1.1,3.1,2.2,4.6,3.2c0.5,0.3,1,0.6,1.5,0.7c0.1,0,0.1,0,0.2,0
	c0.3,0.1,0.6,0.1,1,0.1c0,0,0,0,0,0c0.3,0,0.6,0,0.9-0.1c0.1,0,0.2,0,0.2-0.1c0.3-0.1,0.6-0.2,0.9-0.3c0,0,0.1,0,0.1-0.1
	c0.2-0.1,0.4-0.2,0.6-0.3c1.5-1.1,3-2.1,4.6-3.3c12.9-9.1,29-20.5,34.5-35.2C94.8,39.8,94.4,28.2,86.7,20.8z M83.1,44.7
	c-4.5,12-19.3,22.5-31.1,30.9c-0.7,0.5-1.3,0.9-2,1.4c-0.6-0.5-1.3-0.9-1.9-1.4c-11.9-8.4-26.7-18.8-31.2-30.9
	c-2-5.3-1.9-12.7,2.8-17.2c4.2-4,8.2-5.8,12.4-5.4c8,0.8,14.1,9.2,14.2,9.4c0.1,0.1,0.1,0.2,0.2,0.2c0.1,0.1,0.2,0.3,0.3,0.4
	c0.1,0.1,0.3,0.2,0.4,0.3c0.1,0.1,0.1,0.1,0.2,0.2c0,0,0.1,0,0.1,0c0.1,0.1,0.3,0.2,0.5,0.3c0.1,0.1,0.2,0.1,0.4,0.2
	c0.1,0.1,0.3,0.1,0.4,0.1c0.1,0,0.3,0.1,0.4,0.1c0.1,0,0.3,0,0.4,0c0.2,0,0.3,0,0.5,0c0.1,0,0.3,0,0.4,0c0.1,0,0.3,0,0.4,0
	c0.1,0,0.3-0.1,0.4-0.1c0.1,0,0.3-0.1,0.4-0.1c0.1,0,0.2-0.1,0.3-0.2c0.2-0.1,0.3-0.2,0.5-0.3c0,0,0,0,0.1,0
	c0.1-0.1,0.2-0.1,0.2-0.2c0.1-0.1,0.3-0.2,0.4-0.3c0.1-0.1,0.2-0.3,0.3-0.4c0.1-0.1,0.1-0.2,0.2-0.2c0.1-0.1,6.2-8.6,14.1-9.4
	c4.2-0.4,8.2,1.4,12.4,5.4C85,32,85.1,39.4,83.1,44.7z"/>
</svg>
