<?xml version="1.0" encoding="utf-8"?>
<!-- Generator: Adobe Illustrator 19.1.0, SVG Export Plug-In . SVG Version: 6.00 Build 0)  -->
<svg version="1.1" id="Layer_1" xmlns="http://www.w3.org/2000/svg" xmlns:xlink="http://www.w3.org/1999/xlink" x="0px" y="0px"
	 width="100px" height="100px" viewBox="0 0 100 100" style="enable-background:new 0 0 100 100;" xml:space="preserve">
<style type="text/css">
	.st0{fill:#ACACAC;}
	.st1{fill:#CCCCCC;}
	.st2{fill:#C7C7C7;}
	.st3{fill:#A8A8A8;}
	.st4{fill:#9E9E9E;}
	.st5{fill:#B7B7B7;}
	.st6{fill:#9B9B9B;}
	.st7{fill:#8B8B8B;}
	.st8{fill:#B3B3B3;}
	.st9{fill:#BEBEBE;}
	.st10{fill:#9F9F9F;}
	.st11{fill:#A4A4A4;}
	.st12{fill:#F4F4F4;}
	.st13{fill:#D6D6D6;}
	.st14{fill:#C0C0C0;}
	.st15{fill:#C4C4C4;}
	.st16{fill:#B8B8B8;}
	.st17{fill:#A1A1A1;}
	.st18{fill:#B5B5B5;}
	.st19{fill:#868686;}
	.st20{fill:#818181;}
	.st21{fill:#737373;}
	.st22{fill:#989898;}
	.st23{fill:#727272;}
	.st24{fill:#797979;}
	.st25{fill:#C2C2C2;}
	.st26{fill:#9C9C9C;}
	.st27{fill:#9A9A9A;}
	.st28{fill:#939393;}
</style>
<g>
	<path class="st0" d="M9.2,64.9c-1.2-2.5-1.9-5.1-2.4-7.8c-1.3-6.3-1.1-12.6,0.3-18.9c0.1-0.2,0.2-0.5,0.2-0.7
		c1.1-3.9,2.5-7.6,4.5-11c0.1-0.2,0.3-0.5,0.4-0.7c0.5-0.9,0.9-0.9,1.4,0c2.1,3.5,4.2,7.1,6.3,10.6c2.4,4.1,4.8,8.2,7.2,12.3
		c1.7,2.9,3.3,5.9,5.1,8.8c0.9,1.4,1.7,2.9,2.8,4.2c0.5,0.6,1.3,1.1,1.7,1.8c2.3,2.2,5,3.7,8.1,4.6c2.2,0.6,4.4,0.8,6.7,0.6
		c0.7,0,1.4-0.1,2-0.3c0.3-0.1,0.6-0.1,0.8,0.1c0.3,0.3,0.3,0.6,0.2,0.9c-0.8,3-1.5,6.1-2.5,9c-0.7,0.6-1,1.5-1.5,2.3
		c-1.2,2.3-2.5,4.6-4,6.8c-0.8,1.1-1.7,2.2-2.4,3.4c-0.3,0.5-0.9,0.5-1.4,0.4c-0.7-0.1-1.3-0.2-2-0.4c-0.8-0.3-1.6-0.1-2.3-0.1
		c-3.8-1-7.3-2.5-10.7-4.5c-3.7-2.1-7-4.7-9.9-7.8c-1.9-2-3.6-4.1-5-6.4c-1.4-2.1-2.6-4.4-3.6-6.7C9.4,65.2,9.4,65.1,9.2,64.9z"/>
	<path class="st1" d="M93.2,38c0.6,1.6,0.8,3.3,1,4.9c0.3,2.2,0.4,4.4,0.4,6.6c-0.1,4-0.8,8-2,11.9c0,0.2-0.1,0.3-0.2,0.5
		c-0.5,0.7-0.6,1.6-0.9,2.4c-1.7,4.2-4,8.2-6.9,11.7c-2.4,3-5.2,5.6-8.3,7.8c-3.8,2.8-7.8,4.9-12.2,6.3c-3.8,1.2-7.6,2-11.6,2.1
		c-1.1,0-2.1,0.1-3.2,0.1c-0.3,0-0.6,0.1-0.8-0.2c0-0.1,0-0.2,0-0.2c0.8-0.5,1.1-1.5,1.6-2.2c4.6-8,9.2-16.1,13.8-24.2
		c0.8-1.4,1.5-2.8,2.4-4.1c0.2-0.1,0-0.1,0.1,0c0,0,0,0-0.1,0.1c-0.1,0.1-0.3,0.1-0.4,0c-0.1-0.1-0.3-0.3-0.3-0.4
		c0.1-0.7,0.5-1.1,0.9-1.6c1.9-2.6,2.9-5.6,3.3-8.8c0.1-0.9,0.2-1.7,0.2-2.6c0-0.4-0.1-0.8,0.4-1c0.3,0,0.3,0.3,0.3,0.5
		c0.1,1.7,0,3.4-0.3,4.7c0.2-1.7,0.5-3.8,0.1-5.9c-0.1-0.7-0.2-1.4-0.2-2.1c0.1-0.6,0.5-0.9,1.1-1.1c2.9-0.7,5.9-1.4,8.8-2
		c3.9-0.7,7.7-1.4,11.6-2.3C92.4,38.7,92.7,38.2,93.2,38z"/>
	<path class="st2" d="M93.2,38c0,0.6-0.2,1-0.8,1.1c-2.1,0.5-4.2,1-6.4,1.4c-4.5,0.7-8.9,1.7-13.3,2.7c-0.5,0.1-0.9,0.2-1.4,0.3
		c-0.4,0.1-0.7,0.2-0.8,0.7c-0.6,0-0.3-0.6-0.6-0.8c-0.1-0.5-0.4-1-0.3-1.6c0.4-0.7,1.2-0.8,1.9-0.9c3.6-0.6,7.1-1.6,10.7-2.3
		c2.9-0.5,5.7-1,8.6-1.7c0.8-0.2,1.4-0.5,1.6-1.4c0,0,0.1,0,0.1-0.1C92.9,36.3,93.1,37.2,93.2,38z"/>
	<path class="st3" d="M89.6,28.1c0,0.1,0.1,0.1,0.1,0.2c0,0.3,0.3,0.6,0.1,0.9c-0.3,0.5-0.7,0.5-1.2,0.5c-2.3,0.1-4.5,0.4-6.7,0.8
		c-0.4,0.1-0.7,0.2-0.9,0.5c-2.5,0.8-5.1,1.3-7.7,1.9c-0.8,0.2-1.5,0.5-2.1,0.9c-1.3,0.1-2.5,0.5-3.8,0.8c-0.8,0.2-0.9,0.3-0.4,1.1
		c0.1,0.2,0.2,0.4,0.3,0.6c0.1,0.2,0.1,0.3,0.1,0.5c-0.1,0.2-0.2,0.3-0.4,0.3c-0.3,0.1-0.5-0.1-0.7-0.4c-0.5-0.6-1.1-1.3-1.5-2
		c0-0.5-0.3-0.9-0.6-1.2c-0.7-0.8-0.6-1.3,0.4-1.6c2.2-0.6,4.4-1,6.6-1.4c3.4-0.6,6.9-0.9,10.4-1.5c1.9-0.4,3.8-0.2,5.7-0.7
		c0.3-0.1,0.6-0.2,0.9-0.3c0.4-0.3,0.8-0.2,1.2-0.1C89.4,28,89.5,28.1,89.6,28.1z"/>
	<path class="st4" d="M13.1,24.2c3.7-5.7,8.4-10.3,14.2-13.8c8-4.9,16.8-6.9,26.2-6.3c2.4,0.1,4.7,0.5,7,1.1
		c-0.3,0.4-0.6,0.7-1.1,0.7c-3.3-0.6-6.6-1-10-0.9c-5.6,0.1-11,1.2-16.2,3.4c-5.2,2.2-9.8,5.3-13.9,9.3c-0.6,0.6-1.2,1.1-1.7,1.8
		c-1.5,1.5-2.7,3.2-3.9,5c-0.2,0.1-0.3,0.3-0.6,0.3C12.9,24.7,13,24.5,13.1,24.2z"/>
	<path class="st5" d="M48.5,91.9c0.9,0.3,1.8,0.2,2.7,0.2c4-0.2,8-0.7,11.8-1.9c5.4-1.7,10.3-4.2,14.7-7.7
		c6.3-5,10.8-11.3,13.8-18.8c0.2-0.6,0.5-1.2,0.7-1.9c0,0,0.1,0,0.1,0c0,0,0,0,0.1,0.1c-1.8,5.8-4.8,11-8.8,15.6
		c-3.7,4.2-8,7.6-12.9,10.2c-4.7,2.4-9.7,4-14.9,4.6c-2.6,0.3-5.1,0.4-7.7,0.3c-0.3,0-0.6,0-0.9-0.1C47.5,92.1,48,92.1,48.5,91.9z"
		/>
	<path class="st6" d="M9.2,64.9c0.3,0,0.3,0.3,0.4,0.5c1.5,3.5,3.4,6.7,5.8,9.7C19.3,80,24,84,29.6,86.9c2.4,1.3,4.8,2.3,7.4,3.1
		c0.5,0.2,1.1,0.3,1.6,0.4c1.4,0.2,2.8,0.5,4.2,0.8c0.9,0.2,1.8-0.1,2.6,0.2c0.3,0.1,0.6,0,0.8,0.2c0.1,0.1,0.1,0.2,0.2,0.3
		c0,0.2,0,0.4-0.2,0.5c-3.6-0.3-7-1-10.4-2.2c-6.5-2.2-12.2-5.8-17-10.7c-3.9-4-7-8.5-9.2-13.7C9.4,65.5,9.3,65.2,9.2,64.9z"/>
	<path class="st7" d="M46.2,92.4c0-0.2,0-0.3,0-0.5c0.1-0.1,0.2-0.2,0.4-0.3c0.8-0.1,1.3-0.7,1.6-1.4c1.5-1.3,1.9-3.4,3-5
		c0.7-1,1.2-2,1.7-3.2c1.6-1.7,2.4-3.9,3.6-6c2.2-3.9,4.3-7.8,6.6-11.6c0.4-0.7,0.9-1.2,1-2c0.3-0.4,0.6-0.9,1-1.2
		c0.2-0.2,0.4-0.4,0.8-0.3c0.1,0.1,0.1,0.2,0.2,0.3c0.1,0.3-0.1,0.6-0.2,0.9C60.6,71.1,55.6,80.1,50.4,89c-0.4,0.7-0.8,1.4-1.2,2.1
		c-0.2,0.3-0.4,0.6-0.7,0.8c0,0,0,0,0,0c-0.3,0.6-0.8,0.5-1.3,0.5C46.8,92.5,46.5,92.4,46.2,92.4z"/>
	<path class="st8" d="M13.1,24.2c0.1,0.2,0.1,0.4,0.2,0.5c0.3,0,0.4,0.2,0.6,0.4c1.2,2.1,2.4,4.2,3.6,6.3c1.9,3.3,3.8,6.6,5.8,9.9
		c2,3.5,4.1,7,6.1,10.4c0.5,0.9,1.1,1.7,1.5,2.6c0.2,0.5,0.7,0.6,1,1c1,2.3,2.3,4.4,3.9,6.4c0.4,0.5,1,0.8,1.1,1.5
		c0,0.1-0.1,0.2-0.2,0.3C34.7,62,33.4,60,32.2,58c-2.8-4.7-5.6-9.5-8.3-14.3c-3.4-5.8-6.8-11.6-10.2-17.5c-0.6-1-0.8-1-1.5,0
		c-1.9,3.3-3.4,6.7-4.5,10.4c-0.1,0.3-0.1,0.7-0.4,0.9c0.5-2.7,1.5-5.2,2.7-7.7C10.9,27.9,11.9,26,13.1,24.2z"/>
	<path class="st6" d="M59.3,5.5c0.4-0.1,0.8-0.1,1.2-0.2c8.9,2.2,16.4,6.5,22.6,13.3c2.4,2.7,4.5,5.6,6.2,8.8
		c0.1,0.2,0.2,0.5,0.3,0.7c-0.1,0-0.1,0-0.2,0c0,0-0.1,0-0.1,0c-0.2-0.1-0.3-0.2-0.5-0.4c-2.3-3.7-4.7-7.2-7.8-10.2
		c-3.8-3.7-8.2-6.7-13.1-8.8c-0.8-0.3-1.6-0.5-2.3-0.9c-0.4-0.4-0.9-0.6-1.4-0.7c-1.4-0.3-2.8-0.7-4.2-1.1C59.6,6,59.2,5.9,59.3,5.5
		z"/>
	<path class="st2" d="M91,31.2c0.7,1.4,1.2,2.8,1.5,4.4c0,0,0,0,0,0c-0.1,0.1-0.2,0.1-0.2,0.1c-0.6-0.3-0.4-1-0.7-1.4
		c-0.3-0.6-0.4-1.3-0.7-1.9c-0.2-0.4-0.4-0.7-0.1-1.1C90.9,31.1,90.9,31.1,91,31.2z"/>
	<path class="st9" d="M91,31.2c-0.1,0-0.1,0-0.2,0c-0.1,0.1-0.1,0.1-0.2,0.1c-0.5-0.2-0.5-0.7-0.7-1.1c-0.3-0.3-0.3-0.7-0.2-1.1
		c0-0.2-0.1-0.4,0-0.7C90.3,29.2,90.7,30.2,91,31.2z"/>
	<path class="st10" d="M48.5,90.6c0,0-0.1,0.1-0.1,0.1c-0.3,1.2-1.2,1.4-2.2,1.2c0-0.1,0-0.1,0-0.2c-0.1-0.3,0-0.5,0.1-0.8
		c0.9-1.6,1.8-3.2,2.7-4.7c0.8-1.4,1.1-3,1.6-4.5c0.3-1.2,0.7-2.4,1.3-3.5c0.8-2.8,1.5-5.7,2.3-8.5c0.1-0.4,0.2-0.8,0.2-1.2
		c-0.1-0.3,0-0.6,0.2-0.9c0.7-0.4,1.4-0.5,2.1-0.7c1.4-0.5,2.8-1.1,4-1.9c0.3-0.2,0.7-0.5,1.1-0.3c0.6,0.8-0.1,1.1-0.5,1.5
		c-1.4,0.5-2.5,1.4-2.9,2.8c-0.2,0.7-0.6,1.4-0.9,2.1c-0.5,1.1-0.9,2.4-1.5,3.5c-1.9,3.4-3.3,7.1-4.9,10.6
		C50.4,87,49.4,88.8,48.5,90.6z"/>
	<path class="st11" d="M51.9,78.3c-0.5,2.3-1,4.7-1.9,6.9c-1,2.3-2.3,4.4-3.8,6.5c-2.6-0.1-5.1-0.5-7.6-1.3c1.4-0.1,2.7,0.2,4.1,0.5
		c0.8,0.2,1.2-0.1,1.6-0.8c1.2-2.1,3-3.8,4-5.9c0.7-1.5,1.8-2.9,2.5-4.4C51.1,79.3,51.4,78.8,51.9,78.3z"/>
	<path class="st8" d="M54.8,68c-0.1,0.2-0.2,0.4-0.3,0.6c-2.7,0.4-5.4,0.5-8.1,0c-3.5-0.7-6.6-2.2-9.4-4.6c-0.1-0.1-0.3-0.3-0.4-0.4
		c0-0.1,0-0.2,0-0.3c0.7-0.4,1,0.3,1.3,0.5c1.4,1.1,2.9,2,4.6,2.7c3.5,1.4,7.2,1.9,10.9,1.3C53.9,67.7,54.4,67.4,54.8,68z"/>
	<path class="st12" d="M54.8,68c-4.4,0.9-8.6,0.6-12.7-1.2c-2-0.9-3.7-2.1-5.4-3.5c-2-1.9-3.7-4.2-4.8-6.8c-0.1-0.3-0.3-0.5-0.4-0.8
		c-0.6-0.7-0.7-1.6-1.2-2.3c0.2-0.9-0.3-1.7-0.5-2.5c-0.4-3,0-6,0.9-8.9c0.6-1.8,1.5-3.4,2.4-5.1c1.1-0.9,1.7-2.1,2.7-3
		c3.2-3,7-5,11.4-5.7c1.9-0.3,3.8-0.1,5.7-0.1c2.2,0.4,4.5,0.8,6.5,1.9c0.7,0.3,1.3,0.7,1.9,1.2c0.4,0.4,0.9,0.7,1.4,0.8
		c0.8,0.9,1.7,1.7,2.3,2.7c0.6,0.7,1.1,1.5,1.7,2.2c0.8,0.4,1,1.2,1.4,1.9c0.8,1.5,1.4,3.1,1.8,4.8c0.2,0.9,0.4,1.9,0.5,2.8
		c0,0.3,0.1,0.6-0.2,0.7c0.2,5.2-1.3,9.9-4.5,13.9c-0.5,0.5-0.9,1.1-1.4,1.6c-0.5,0.7-1,1.4-1.7,1.9c-0.3,0.2-0.6,0.4-1,0.3
		C59.6,66.3,57.3,67.4,54.8,68z"/>
	<path class="st13" d="M48.5,91.9c1-2.1,2.2-4,3.4-6c4.5-7.8,9-15.7,13.4-23.5c0.2-0.4,0.4-0.7,0.7-1.1c0.3-0.3,0.7-0.6,1-1
		c0,0,0.1,0,0.1,0c-0.9,1.6-1.8,3.2-2.8,4.8c-3.3,5.7-6.5,11.4-9.8,17.1c-1.6,2.9-3.3,5.8-4.9,8.7C49.4,91.5,49.2,92,48.5,91.9z"/>
	<path class="st14" d="M70.4,47.1c0-1.3-0.4-2.4-0.5-3.7c0.1-0.1,0.2-0.1,0.4,0c0.1,0.3,0.2,0.6,0.3,0.8c0.4,2.7,0.5,5.3,0,8
		c-0.1,0.3-0.1,0.6-0.2,0.9c0,0.1-0.1,0.3-0.2,0.4c0.3-1.8,0.5-3.5,0.4-5.3C70.5,47.8,70.6,47.4,70.4,47.1z"/>
	<path class="st15" d="M92.4,35.5c0.1,0,0.1,0,0.2,0c0.1,1.4,0.1,1.4-1.2,1.7c-4,1-8.2,1.5-12.2,2.4c-2.5,0.6-5,1.2-7.5,1.6
		c-0.6,0.1-1.1,0.3-1.7,0.6c-0.6-0.3-0.6-0.9-0.7-1.4c0.3-0.5,0.7-0.7,1.2-0.8c1.1-0.3,2.2-0.6,3.4-0.4c0.7,0.1,1.4-0.2,2.1-0.4
		c2.7-0.7,5.5-1.3,8.3-1.8c2.5-0.4,5-1,7.5-1.6C91.9,35.5,92.1,35.5,92.4,35.5z"/>
	<path class="st16" d="M69.4,40.6c0.2,0.4,0.3,0.9,0.5,1.3c0.1,0.5,0.2,1,0.3,1.5c-0.1,0-0.2,0-0.4,0c-0.7-2.3-1.7-4.5-3-6.5
		c0.1-0.1,0.2-0.1,0.3-0.2c0.5-0.2,0.6,0.2,0.8,0.5c0.4,0.5,0.7,1.2,1,1.7C69.3,39.4,69.6,39.9,69.4,40.6z"/>
	<path class="st9" d="M68.7,39c-0.6-0.7-0.9-1.6-1.5-2.4c-0.1-0.1-0.1-0.2-0.2-0.3c0-0.4,0.3-0.5,0.6-0.5c2.8-0.4,5.5-1.2,8.3-1.8
		c2.2-0.5,4.4-0.5,6.6-0.9c2.3-0.4,4.6-0.8,6.9-1c0.6,0,1.2,0,1.8,0c0.3,0.6,0.5,1.2,0.7,1.8c0.1,0.5-0.2,0.8-0.7,0.9
		c-1.8,0.4-3.6,0.9-5.4,1.1c-2,0.2-4,0.8-6,1.2c-2,0.4-4,0.9-6,1c-1.4,0.1-2.8,0.6-4.3,0.9C69.2,39.1,69,39.2,68.7,39z"/>
	<path class="st16" d="M91.2,32.2c-0.5,0.6-1.3,0.4-1.9,0.4c-3.2,0.3-6.2,1.1-9.4,1.3c-3.5,0.3-6.9,1.3-10.4,2
		c-0.8,0.2-1.7,0.3-2.6,0.4c-1.7-1.9-1.6-1.6,0.6-2.2c1.1-0.3,2.2-0.5,3.3-0.8c2.6-0.5,5.2-1.3,7.9-1.4c2.8-0.1,5.5-0.7,8.4-0.7
		c0.8,0,1.7-0.2,2.5-0.2c0.4,0,0.7,0,1.1,0.1c0.1,0,0.1,0,0.2,0C91,31.5,91.1,31.8,91.2,32.2z"/>
	<path class="st17" d="M65.1,34.7c-0.8-0.8-1.7-1.5-2.5-2.3c-0.1-0.3-0.5-0.4-0.7-0.7c-0.5-0.5-0.4-0.8,0.2-1.1
		c0.2-0.1,0.4-0.1,0.6-0.2c4.7-0.7,9.5-1.7,14.3-1.9c0.7,0,1-0.7,1.6-0.6c2.3-0.1,4.5,0.1,6.8-0.1c1,0.1,2-0.3,2.8,0.4
		c-0.8,0.5-1.8,0.5-2.7,0.6c-2.6,0.3-5.2,0.9-7.9,1.1c-3,0.3-5.9,1-8.9,1.3c-1.5,0.2-2.9,0.6-4.3,1c-0.6,0.2-0.7,0.5-0.2,1
		c0.3,0.3,0.6,0.6,0.9,0.9C65.3,34.4,65.4,34.6,65.1,34.7z"/>
	<path class="st18" d="M90.7,31.1c-1.1,0.5-2.3,0.4-3.4,0.5c-2.2,0.1-4.4,0.5-6.6,0.6c-3.2,0.1-6.3,0.7-9.5,1.2
		c-0.1,0-0.3,0-0.4-0.1c1.5-0.6,3-0.9,4.5-1.3c1.8-0.5,3.6-0.9,5.4-1.4c2-0.3,4-0.5,6-0.7c1.1-0.1,2.3-0.4,3.4,0
		C90.5,30.3,90.6,30.7,90.7,31.1z"/>
	<path class="st0" d="M90.2,30c-1.2,0.6-2.5,0.3-3.8,0.5c-1.6,0.2-3.3,0.3-5,0.3c-0.2,0-0.4-0.1-0.6-0.1c1.6-0.6,3.3-1,5-1.2
		c1-0.1,2-0.1,3.1-0.2c0.3,0,0.6-0.1,0.8-0.3C89.9,29.3,90.1,29.6,90.2,30z"/>
	<path class="st6" d="M88.2,28.3c-1,0-1.9,0-2.9,0c0-0.2,0.1-0.4,0.3-0.4c1.3,0,2.5-0.3,3.8,0.2c0,0,0,0,0,0
		C89,28.4,88.6,28.3,88.2,28.3z"/>
	<path class="st19" d="M59.3,5.5C61,6,62.9,6.3,64.6,7c0.4,0.2,0.8,0.3,1.2,0.5c0,0.3-0.2,0.4-0.4,0.5c-0.6,0.2-0.7,0.6-0.6,1.1
		c0.5,3.1,0.4,6.2,0.4,9.4c0,2.7-0.4,5.4-1.1,8c-0.3,1.2-0.6,1.4-1.8,1.4c-3.3,0-6.5,0-9.8,0c-1.1,0-2.3,0.1-3.4,0.2
		c-4.1,0.1-7.7,1.6-11,3.9c-1.4,1-2.5,2.2-3.6,3.4c-0.2,0.1-0.4,0.1-0.6,0.2c-0.5,0.2-1,0.1-1.3-0.4c-0.7-1.3-1.8-2.4-2.5-3.7
		c-0.3-0.5-0.6-0.8-1.2-0.7c-0.6,0.1-1-0.2-1.3-0.7c-0.2-0.3-0.4-0.7-0.6-1c-0.3-0.5-0.7-0.8-1.2-0.8c-0.6,0-1.1-0.3-1.3-0.8
		c-0.7-1.4-2.1-2.4-2.8-3.9c-0.1-0.3-0.4-0.5-0.6-0.5c-1-0.2-1.4-1-1.9-1.8c-0.4-0.7-0.8-1.3-1.6-1.6c-0.1,0-0.2-0.2-0.2-0.3
		c3.1-3.6,6.8-6.5,10.9-8.9C33.1,7.7,38.3,5.8,43.9,5c4.3-0.6,8.7-0.7,13,0C57.7,5.2,58.5,5.3,59.3,5.5z"/>
	<path class="st20" d="M17.3,19.4c0.8,0,1.4,0.4,1.8,1.1c0.3,0.5,0.6,1,0.9,1.4c0.2,0.2,0.3,0.5,0.6,0.6c1,0.2,1.5,1,2,1.8
		c0.7,1.2,1.8,2.1,2.5,3.4c0.1,0.3,0.5,0.3,0.8,0.3c0.7-0.1,1.2,0.3,1.5,0.9c0.2,0.3,0.4,0.6,0.6,0.9c0.3,0.4,0.6,0.7,1.1,0.5
		c0.6-0.2,1,0.1,1.2,0.6c0.7,1.3,1.8,2.3,2.4,3.7c0.4,0.9,1,0.8,1.7,0.6c0.3,0.3-0.1,0.5-0.2,0.7c-0.3,0.4-0.7,0.8-0.8,1.3
		c-0.9,1.5-1.7,3.1-2.3,4.7c-0.3,0.5-0.7,0.5-1.1,0.1c-0.2-0.2-0.4-0.4-0.7-0.6c-3.9-3.8-7.7-7.7-11.6-11.5
		c-0.7-0.7-1.3-1.7-2.1-2.3c-0.2-0.4-0.7-0.4-1-0.8c-0.2-0.5-0.6-0.9-0.9-1.3c-0.1-0.4-0.4-0.7-0.4-1.1
		C14.6,22.5,15.8,20.9,17.3,19.4z"/>
	<path class="st21" d="M13.4,24.3c0.3,0.3,0.5,0.6,0.5,1c-0.1,0.1-0.2,0.1-0.3,0c-0.1-0.2-0.2-0.3-0.3-0.5
		C13.3,24.6,13.4,24.4,13.4,24.3z"/>
	<path class="st6" d="M48.5,90.6c0.5-2.1,1.7-4,2.5-6c1-2.5,2.3-4.9,3.2-7.5c0.2-0.7,0.8-1.1,1.1-1.8c0.9-2.3,2-4.5,2.8-6.8
		c0.5-1.4,1.7-2.1,3-2.6c0.3,0.3,0.1,0.6,0,0.9c-1.9,3.9-3.7,7.8-5.8,11.6c-0.7,1.3-1.4,2.6-2,3.9c-0.1,0.6-0.5,1-0.8,1.5
		c-1.2,2.1-2.4,4.3-3.6,6.4C48.8,90.4,48.6,90.5,48.5,90.6z"/>
	<path class="st22" d="M53.2,82.4c0.4-1.5,1.3-2.8,1.9-4.3c0.8-2,2.1-3.8,2.9-5.8c0.9-2.2,2-4.3,3.1-6.4c0.2-0.4,0.9-0.4,0.7-1
		c0.9-0.7,1.8-1.5,2.7-2.2c-0.2,0.9-0.8,1.6-1.2,2.4c-2.6,4.5-5.2,9-7.7,13.5C54.8,79.9,54.1,81.2,53.2,82.4z"/>
	<path class="st23" d="M13.6,25.3c0.1,0,0.2,0,0.3,0c0.3,0.4,0.7,0.8,1,1.2c0.8,1.1,1.5,2.3,2.4,3.3c1.3,2.5,2.8,4.8,4.2,7.3
		c2.7,4.7,5.4,9.3,8.1,14c0.4,0.7,0.6,1.6,1.1,2.3c0.3,0.8,0.5,1.6,0.8,2.3c-0.4-0.1-0.5-0.5-0.7-0.8c-5-8.5-10-17-14.9-25.6
		C15.1,28,14.3,26.6,13.6,25.3z"/>
	<path class="st20" d="M48.9,27.8c0.4-0.2,0.8-0.2,1.1-0.2c4.1,0,8.1,0,12.2,0c1.1,0,1.3-0.1,1.6-1.2c0.7-2.8,1.1-5.6,1.1-8.5
		c0-3.3,0-6.5-0.6-9.8c-0.1-0.6,0-1,0.7-0.7c0.3,0.1,0.6,0.2,0.9,0c1.3,0.7,2.7,1.1,4.1,1.8c3.7,1.9,7.1,4.1,10.1,6.9
		c3.6,3.3,6.5,7,8.9,11.2c0,0.1,0.1,0.2,0.1,0.2c-0.5,0.5-1.2,0.2-1.8,0.2c-5.4,0.2-10.9,0-16.3,0.1c-6.7,0.1-13.4,0.1-20.1,0
		C50.2,28,49.5,28.3,48.9,27.8z"/>
	<path class="st24" d="M48.9,27.8c13.4,0.1,26.8-0.3,40.1-0.2c0.1,0.2,0.2,0.3,0.3,0.5c-1.3,0.1-2.7-0.2-4,0.2c-2.3,0-4.6,0-6.9,0
		c-1.5,0.4-3,0.3-4.5,0.4c-1.6,0.1-3.3,0-4.9,0.1c-1.5-0.4-3-0.1-4.5-0.1c-3.5,0.1-7,0.2-10.5-0.2c-0.4,0-0.8,0-1.2-0.1
		c-3.2-0.2-6.4-0.1-9.5,1.1c-3.9,1.5-7.1,3.9-9.5,7.3c-0.1,0.2-0.3,0.4-0.4,0.5c-0.2-0.5,0.3-0.8,0.5-1.2c0.1-0.3,0.4-0.5,0.5-0.9
		c1.2-1.2,2.3-2.5,3.7-3.5C41.4,29.4,44.9,27.9,48.9,27.8z"/>
	<path class="st25" d="M68.7,39c0.4-0.3,0.9-0.5,1.5-0.6c5-1,10.1-1.8,15.1-2.8c1.9-0.4,3.8-0.7,5.7-1.1c0.4-0.1,0.8-0.2,1-0.5
		c0.3,0.5,0.4,1,0.5,1.5c-0.2,0.4-0.6,0.4-1,0.5c-3.3,0.9-6.7,1.3-10,2c-2.1,0.4-4.3,0.9-6.4,1.5c-1,0.3-2.1-0.1-3.1,0.2
		C71,40,70.1,40,69.4,40.6C69.1,40.1,68.9,39.5,68.7,39z"/>
	<path class="st26" d="M50.2,64.4c-8.9,0-16.1-7.2-16.1-16.1c0-8.9,7-16.2,16.2-16.1c9.6,0,16.2,7.9,16.1,16.4
		C66.3,57.3,59.1,64.4,50.2,64.4z"/>
	<path class="st24" d="M30.7,53.3c-0.6-0.3-0.8-1-1.1-1.5c-3-5.2-6-10.4-9-15.6c-1.2-2.1-2.4-4.2-3.6-6.2c-0.4-0.7-0.7-1.5-1.2-2.2
		c-0.1-0.2-0.2-0.3,0-0.5c0.3,0.3,0.6,0.5,0.9,0.8c4.4,4.4,8.9,8.9,13.3,13.3c0.3,0.3,0.6,0.7,1.1,0.5C30,45.7,29.7,49.5,30.7,53.3z
		"/>
	<path class="st27" d="M69,28.3c3.1,0,6.3,0,9.4,0c-0.7,0.6-1.7,0.5-2.6,0.6c-4.4,0.5-8.7,1.2-13,1.9c-0.2,0-0.4,0.1-0.6,0.1
		c-0.5,0.1-0.6,0.4-0.2,0.8c0.2,0.2,0.6,0.2,0.5,0.7c-1.1-0.7-2.1-1.3-3.2-2c-0.2-0.8,0-1,0.7-1.1c2.4-0.4,4.7-0.7,7.2-0.7
		C67.8,28.5,68.5,28.6,69,28.3z"/>
	<path class="st28" d="M69,28.3c-0.4,0.5-1.1,0.5-1.6,0.5c-2.4,0.1-4.8,0.7-7.3,0.9c-0.4,0-0.6,0.3-0.7,0.7c-2.1-1-4.3-1.6-6.5-2
		C58.3,28.3,63.6,28.3,69,28.3z"/>
	<path class="st21" d="M15.8,27.3c0.3,0.9,1,1.7,1.2,2.7c-0.8-1.1-1.5-2.2-2-3.5C15.3,26.7,15.6,27,15.8,27.3z"/>
</g>
</svg>
