<?xml version="1.0" encoding="utf-8"?>
<!-- Generator: Adobe Illustrator 19.1.0, SVG Export Plug-In . SVG Version: 6.00 Build 0)  -->
<svg version="1.1" id="Layer_1" xmlns="http://www.w3.org/2000/svg" xmlns:xlink="http://www.w3.org/1999/xlink" x="0px" y="0px"
	 width="62.3px" height="100px" viewBox="0 0 62.3 100" enable-background="new 0 0 62.3 100" xml:space="preserve">
<g>
	<path d="M58.2,42.6c-1.4,0-2.5,1.1-2.5,2.5v7.4C55.7,66,44.7,77,31.2,77S6.6,66,6.6,52.5v-7.4c0-1.4-1.1-2.5-2.5-2.5
		s-2.5,1.1-2.5,2.5v7.4c0,15.4,11.9,28.1,27,29.4v9.9H14c-1.4,0-2.5,1.1-2.5,2.5c0,1.4,1.1,2.5,2.5,2.5h34.4c1.4,0,2.5-1.1,2.5-2.5
		c0-1.4-1.1-2.5-2.5-2.5H33.6v-9.9c15.1-1.3,27-13.9,27-29.4v-7.4C60.6,43.7,59.5,42.6,58.2,42.6z"/>
	<path d="M31.2,3.3C21.7,3.3,14,11,14,20.5v31.9c0,9.5,7.7,17.2,17.2,17.2s17.2-7.7,17.2-17.2V20.5C48.4,11,40.6,3.3,31.2,3.3z
		 M43.4,52.5c0,6.8-5.5,12.3-12.3,12.3s-12.3-5.5-12.3-12.3V20.5c0-6.8,5.5-12.3,12.3-12.3s12.3,5.5,12.3,12.3V52.5z"/>
</g>
</svg>
