<?xml version="1.0" encoding="utf-8"?>
<!-- Generator: Adobe Illustrator 19.1.0, SVG Export Plug-In . SVG Version: 6.00 Build 0)  -->
<svg version="1.1" id="Layer_1" xmlns="http://www.w3.org/2000/svg" xmlns:xlink="http://www.w3.org/1999/xlink" x="0px" y="0px"
	 width="68.1px" height="100px" viewBox="-18 0 68.1 100" style="enable-background:new -18 0 68.1 100;" xml:space="preserve">
<g>
	<path d="M45.1,42.5c-1.4,0-2.5,1.1-2.5,2.5v1.3v6v0.1C42.6,66,31.6,77,18.1,77S-6.5,66-6.5,52.5V45c0-1.4-1.1-2.5-2.5-2.5
		s-2.5,1.1-2.5,2.5v7.4c0,15.4,11.9,28.1,27,29.4v9.9H0.9c-1.4,0-2.5,1.1-2.5,2.5c0,1.4,1.1,2.5,2.5,2.5h34.4c1.4,0,2.5-1.1,2.5-2.5
		c0-1.4-1.1-2.5-2.5-2.5H20.5v-9.9c13.9-1.2,25.2-12,26.8-25.9l0,0c0-0.1,0-0.2,0-0.3c0.1-1.1,0.2-2.1,0.2-3.2v-0.1V50V45
		C47.5,43.7,46.4,42.5,45.1,42.5z"/>
	<path d="M0.9,22.2l4.8,3.5v0l24.6,17.9v0l5,3.6v0l3.3,2.4V45c0-0.5,0.1-1,0.2-1.4l-3.5-2.5V41l-5-3.6v0L4.7,18.8l-3.4-2.5
		c0,0,0,0,0,0l-12.7-9.2c-0.4-0.3-1-0.5-1.5-0.5c-0.8,0-1.5,0.4-2,1c-0.8,1.1-0.6,2.7,0.5,3.5L0.9,22.2L0.9,22.2z"/>
	<path d="M18,8.2c6.8,0,12.3,5.5,12.3,12.3v13.3l5,3.6V20.5c0-9.5-7.8-17.2-17.2-17.2c-7,0-13,4.2-15.7,10.2l4,2.9
		C8.1,11.5,12.6,8.2,18,8.2z"/>
	<path d="M0.9,26v26.4c0,9.5,7.7,17.2,17.2,17.2s17.2-7.7,17.2-17.2V51l-5-3.6v5.1c0,6.8-5.5,12.3-12.3,12.3S5.7,59.2,5.7,52.5v-23
		L0.9,26z"/>
</g>
</svg>
