<?xml version="1.0" encoding="utf-8"?>
<!-- Generator: Adobe Illustrator 19.1.0, SVG Export Plug-In . SVG Version: 6.00 Build 0)  -->
<svg version="1.1" id="Layer_1" xmlns="http://www.w3.org/2000/svg" xmlns:xlink="http://www.w3.org/1999/xlink" x="0px" y="0px"
	 width="100px" height="100px" viewBox="0 0 100 100" enable-background="new 0 0 100 100" xml:space="preserve">
<g>
	<path d="M50,4.5c25.1,0,45.5,20.4,45.5,45.5S75.1,95.5,50,95.5S4.5,75.1,4.5,50C4.6,24.9,24.9,4.6,50,4.5 M50,1.5
		C23.2,1.5,1.5,23.2,1.5,50S23.2,98.5,50,98.5S98.5,76.8,98.5,50S76.8,1.5,50,1.5z"/>
	<path d="M42.1,38l20.7,12L42.1,62V38 M41.2,34.9c-0.8,0-1.5,0.7-1.5,1.5c0,0,0,0,0,0v27.1c0,0.8,0.7,1.5,1.5,1.5
		c0.3,0,0.5-0.1,0.8-0.2l23.5-13.6c0.7-0.4,1-1.3,0.6-2.1c-0.1-0.2-0.3-0.4-0.6-0.6L42,35.1C41.8,35,41.5,34.9,41.2,34.9L41.2,34.9z
		"/>
</g>
</svg>
