<?xml version="1.0" encoding="utf-8"?>
<!-- Generator: Adobe Illustrator 19.1.0, SVG Export Plug-In . SVG Version: 6.00 Build 0)  -->
<svg version="1.1" id="Layer_1" xmlns="http://www.w3.org/2000/svg" xmlns:xlink="http://www.w3.org/1999/xlink" x="0px" y="0px"
	 width="137.8px" height="28.7px" viewBox="19 36.3 137.8 28.7" style="enable-background:new 19 36.3 137.8 28.7;"
	 xml:space="preserve">
<g>
	<g>
		<polygon points="84.6,45.2 85.6,42.7 84.6,40.2 83.7,40.7 84.5,42.7 83.7,44.7 		"/>
		<polygon points="78.7,45.2 79.6,44.7 78.8,42.7 79.6,40.7 78.7,40.2 77.7,42.7 		"/>
		<polygon points="86.6,46.5 88.2,42.7 86.6,38.9 85.7,39.4 87,42.6 85.7,45.8 		"/>
		<polygon points="76.8,46.5 77.7,45.8 76.4,42.6 77.7,39.4 76.8,38.9 75.2,42.7 		"/>
		<polygon points="87.7,47.2 88.6,47.7 90.7,42.7 88.6,37.7 87.7,38.2 89.6,42.7 		"/>
		<polygon points="75.7,47.2 73.8,42.7 75.7,38.2 74.8,37.7 72.7,42.7 74.8,47.7 		"/>
		<path d="M82.2,44L82.2,44l0.6-0.2l0.4-1.1l-0.4-1.1l-1.1-0.4l-1.1,0.4l-0.4,1.1l0.4,1.1l0.6,0.2l0,0l0,0l0,0l-8.7,19.6l9.2-7.1
			l9.2,7.1L82.2,44z M75,60.5l3.1-6.9l2.9,2.2L75,60.5z M78.4,52.8l3.3-7.3l3.3,7.3l-3.3,2.5L78.4,52.8z M85.4,53.7l3.1,6.9L82.6,56
			L85.4,53.7z"/>
	</g>
	<path d="M94.4,57.3l0.2-1.2l1.5-0.9v-6.4l-1.5-0.4l0.1-1.3c1.8-0.3,3.3-0.4,4.5-0.4s2,0,2.7,0.1c0.6,0.1,1.2,0.2,1.7,0.4
		s0.9,0.4,1.3,0.6c0.4,0.3,0.7,0.5,0.9,0.8c0.2,0.3,0.4,0.6,0.6,1c0.3,0.6,0.4,1.3,0.4,2.1s-0.2,1.5-0.5,2.1
		c-0.3,0.7-0.8,1.2-1.4,1.8c-0.6,0.5-1.3,0.9-2.2,1.2c-0.9,0.3-2,0.5-3.1,0.5L94.4,57.3L94.4,57.3z M99.3,55.6h0.6
		c1.8,0,2.8-0.7,3.2-2.2c0.1-0.4,0.1-0.7,0.1-1.1c0-0.4,0-0.7-0.1-1.1s-0.2-0.7-0.4-1c-0.2-0.3-0.4-0.6-0.7-0.9
		c-0.6-0.6-1.5-0.9-2.5-0.9h-0.1c0,0,0,0,0.1,0s0,0,0,0h-0.1L99.3,55.6L99.3,55.6z M106.9,53.3c0-0.6,0.1-1.2,0.4-1.7s0.6-1,1-1.3
		c0.9-0.7,1.8-1.1,2.8-1.1c2.6,0,3.9,1.3,3.9,3.9c0,1.3-0.4,2.4-1.1,3.2s-1.7,1.2-3,1.2c-1.5,0-2.5-0.4-3.2-1.3
		C107.2,55.4,106.9,54.5,106.9,53.3z M110.8,51c-0.4,0-0.7,0.1-0.9,0.4s-0.2,0.9-0.2,1.7c0,1.8,0.5,2.7,1.4,2.7
		c0.4,0,0.6-0.1,0.8-0.3c0.1-0.2,0.2-0.6,0.2-1.1s0-0.9,0-1.1c0-0.3,0-0.5-0.1-0.9c-0.1-0.3-0.1-0.6-0.2-0.8
		C111.6,51.2,111.3,51,110.8,51z M114.9,57.3l0.1-1.5l1.3-0.5V49l-1.4-0.9l0.3-1.4l3.3-0.2L119,47v8.3l0.9,0.5l-0.2,1.5H114.9z
		 M119.1,53.9l0.1-0.4l1.6-2.6l-1.1-0.5l0.2-1.3h4.5l-0.2,1.3l-1.2,0.5l-1.4,2.2l0.1,0.2c0.5,0.8,1,1.4,1.4,1.8
		c0.4,0.4,0.9,0.8,1.4,1.1l0.3,0.2l-0.2,0.9h-0.2c-1,0.2-1.7,0.1-2.3-0.1c-0.7-0.3-1.4-1.1-2.2-2.3L119.1,53.9z M124.6,53.3
		c0-0.6,0.1-1.2,0.4-1.7s0.6-1,1-1.3c0.9-0.7,1.8-1.1,2.8-1.1c2.6,0,3.9,1.3,3.9,3.9c0,1.3-0.4,2.4-1.1,3.2s-1.7,1.2-3,1.2
		c-1.5,0-2.5-0.4-3.2-1.3C124.9,55.4,124.6,54.5,124.6,53.3z M128.5,51c-0.4,0-0.7,0.1-0.9,0.4s-0.2,0.9-0.2,1.7
		c0,1.8,0.5,2.7,1.4,2.7c0.4,0,0.6-0.1,0.8-0.3c0.1-0.2,0.2-0.6,0.2-1.1s0-0.9,0-1.1c0-0.3,0-0.5-0.1-0.9c-0.1-0.3-0.1-0.6-0.2-0.8
		C129.3,51.2,129,51,128.5,51z M132.7,57.3l0.1-1.3l1.2-0.6v-3.5l-1.2-0.7l0.2-1.4l3.4-0.2l0.3,0.3l-0.2,0.9l0.1,0.1
		c0.4-0.4,0.8-0.8,1.2-1s0.8-0.3,1.2-0.3c1,0,1.6,0.5,1.9,1.4h0.1c0.4-0.5,0.9-0.8,1.3-1.1c0.4-0.3,0.8-0.4,1.2-0.4
		c0.6,0,1.2,0.2,1.5,0.6c0.4,0.4,0.5,1,0.5,1.8v3.4l1.2,0.5l-0.2,1.4h-3.7v-3.6c0-0.5-0.1-0.9-0.2-1.1c-0.1-0.2-0.4-0.3-0.7-0.3
		s-0.7,0.1-1,0.4v2.7l1.1,0.5l-0.2,1.4h-3.5v-3.6c0-0.5-0.1-0.9-0.2-1.1c-0.1-0.2-0.4-0.3-0.7-0.3s-0.7,0.1-1,0.4v2.7l1,0.5
		l-0.2,1.4L132.7,57.3L132.7,57.3L132.7,57.3z M147.3,55.7c0-0.8,0.3-1.4,1-2c0.7-0.5,1.6-0.8,2.8-0.8v-0.8c0-0.4-0.1-0.7-0.3-1
		s-0.4-0.4-0.7-0.4c-0.2,0-0.4,0.1-0.5,0.4c-0.1,0.3-0.2,0.7-0.2,1.4c-0.9,0-1.5-0.2-1.7-0.5c-0.1-0.1-0.1-0.4-0.1-0.6
		c0-0.3,0.2-0.6,0.6-0.9c0.4-0.4,0.9-0.6,1.5-0.9c0.6-0.2,1.2-0.4,1.9-0.4c0.6,0,1.2,0.2,1.6,0.6c0.4,0.4,0.6,1.1,0.6,2V54
		c0,0.5,0,0.8,0.1,1s0.3,0.3,0.7,0.4l0.2,0.1l-0.2,1.4c-0.3,0.2-0.4,0.3-0.5,0.3s-0.1,0-0.2,0.1c-0.1,0-0.1,0-0.2,0.1
		c0,0-0.1,0-0.2,0c-0.1,0-0.3,0-0.6,0c-0.6,0-1.1-0.4-1.4-1.1v-0.1l-0.1-0.1c-0.1,0.3-0.4,0.6-0.8,0.9c-0.4,0.2-0.9,0.4-1.4,0.4
		s-0.9-0.1-1.3-0.4C147.4,56.7,147.3,56.3,147.3,55.7z M150.1,54.3c-0.2,0.2-0.3,0.4-0.3,0.6c0,0.2,0.1,0.4,0.2,0.5
		c0.1,0.1,0.3,0.2,0.5,0.2s0.4-0.1,0.7-0.2V54C150.7,54,150.3,54.1,150.1,54.3z"/>
	<path d="M21,47.4c0-0.3,0.3-0.6,0.6-0.6h3.8c1.3,0,2.3,0.4,2.9,1c0.5,0.5,0.8,1.2,0.8,2l0,0c0,1.7-1.1,2.6-2.7,3l2.5,3.3
		c0.1,0.1,0.2,0.3,0.2,0.4c0,0.3-0.3,0.6-0.6,0.6c-0.2,0-0.4-0.1-0.5-0.3l-2.9-3.7h-3v3.4c0,0.3-0.3,0.6-0.6,0.6s-0.6-0.3-0.6-0.6
		v-9.1H21z M25.3,52c1.5,0,2.6-0.8,2.6-2.1l0,0c0-1.3-1-2-2.6-2h-3.2V52C22.1,52,25.3,52,25.3,52z M30.9,56.3l4.1-9
		c0.1-0.3,0.4-0.5,0.7-0.5h0.1c0.3,0,0.6,0.2,0.7,0.5l4.1,9c0,0.1,0.1,0.2,0.1,0.3c0,0.3-0.2,0.6-0.6,0.6c-0.3,0-0.5-0.2-0.6-0.4
		l-1-2.5H33l-1.1,2.4c-0.1,0.2-0.3,0.4-0.6,0.4s-0.5-0.2-0.5-0.5C30.8,56.5,30.8,56.4,30.9,56.3z M38.1,53.3l-2.3-5.2l-2.4,5.2H38.1
		z M42.9,47.4c0-0.3,0.3-0.6,0.6-0.6h3c3.2,0,5.4,2.2,5.4,5.1l0,0c0,2.9-2.2,5.1-5.4,5.1h-3c-0.3,0-0.6-0.3-0.6-0.6V47.4z M46.5,56
		c2.6,0,4.2-1.7,4.2-4l0,0c0-2.3-1.6-4-4.2-4h-2.4v8.1L46.5,56L46.5,56z M54.4,47.3c0-0.3,0.3-0.6,0.6-0.6c0.3,0,0.6,0.3,0.6,0.6
		v9.2c0,0.3-0.3,0.6-0.6,0.6c-0.3,0-0.6-0.3-0.6-0.6V47.3z M58.1,52L58.1,52c0-2.8,2.1-5.3,5.2-5.3c3.1,0,5.2,2.4,5.2,5.2l0,0
		c0,2.8-2.1,5.3-5.2,5.3C60.2,57.2,58.1,54.8,58.1,52z M67.3,52L67.3,52c0-2.3-1.7-4.2-4-4.2s-4,1.9-4,4.2l0,0c0,2.3,1.7,4.2,4,4.2
		S67.3,54.3,67.3,52z"/>
</g>
</svg>
